<?xml version="1.0" encoding="UTF-8" standalone="no"?>
<!-- Created with Inkscape (http://www.inkscape.org/) -->

<svg
   width="210mm"
   height="297mm"
   viewBox="0 0 210 297"
   version="1.1"
   id="svg5"
   inkscape:version="1.2.2 (732a01da63, 2022-12-09)"
   sodipodi:docname="节点基函数.svg"
   inkscape:export-filename="节点基函数.png"
   inkscape:export-xdpi="197.08"
   inkscape:export-ydpi="197.08"
   xmlns:inkscape="http://www.inkscape.org/namespaces/inkscape"
   xmlns:sodipodi="http://sodipodi.sourceforge.net/DTD/sodipodi-0.dtd"
   xmlns="http://www.w3.org/2000/svg"
   xmlns:svg="http://www.w3.org/2000/svg">
  <sodipodi:namedview
     id="namedview7"
     pagecolor="#ffffff"
     bordercolor="#000000"
     borderopacity="0.25"
     inkscape:showpageshadow="2"
     inkscape:pageopacity="0.0"
     inkscape:pagecheckerboard="0"
     inkscape:deskcolor="#d1d1d1"
     inkscape:document-units="mm"
     showgrid="true"
     inkscape:zoom="4.2230386"
     inkscape:cx="524.74065"
     inkscape:cy="426.82537"
     inkscape:window-width="2880"
     inkscape:window-height="1541"
     inkscape:window-x="-11"
     inkscape:window-y="-11"
     inkscape:window-maximized="1"
     inkscape:current-layer="layer1">
    <inkscape:grid
       type="xygrid"
       id="grid132" />
  </sodipodi:namedview>
  <defs
     id="defs2">
    <marker
       style="overflow:visible"
       id="Arrow1"
       refX="0"
       refY="0"
       orient="auto-start-reverse"
       inkscape:stockid="Arrow1"
       markerWidth="4.0606604"
       markerHeight="6.7071066"
       viewBox="0 0 4.0606602 6.7071068"
       inkscape:isstock="true"
       inkscape:collect="always"
       preserveAspectRatio="xMidYMid">
      <path
         style="fill:none;stroke:context-stroke;stroke-width:1;stroke-linecap:butt"
         d="M 3,-3 0,0 3,3"
         id="path5057"
         transform="rotate(180,0.125,0)"
         sodipodi:nodetypes="ccc" />
    </marker>
    <clipPath
       id="clipPath2582">
      <path
         clip-rule="nonzero"
         d="M 4,0 H 7 V 3.835938 H 4 Z m 0,0"
         id="path9293" />
    </clipPath>
    <clipPath
       id="clipPath2800">
      <path
         clip-rule="nonzero"
         d="m 7,0 h 8 V 4.664063 H 7 Z m 0,0"
         id="path1658" />
    </clipPath>
    <clipPath
       id="clipPath8149">
      <path
         clip-rule="nonzero"
         d="m 7,0 h 8 V 4.664063 H 7 Z m 0,0"
         id="path1376" />
    </clipPath>
    <clipPath
       id="clipPath4896">
      <path
         clip-rule="nonzero"
         d="M 4,0 H 6 V 3.835938 H 4 Z m 0,0"
         id="path3220" />
    </clipPath>
    <clipPath
       id="clipPath4259">
      <path
         clip-rule="nonzero"
         d="m 6,0 h 9 V 4.664063 H 6 Z m 0,0"
         id="path6248" />
    </clipPath>
    <clipPath
       id="clipPath450">
      <path
         clip-rule="nonzero"
         d="m 6,0 h 9 V 4.664063 H 6 Z m 0,0"
         id="path3745" />
    </clipPath>
    <clipPath
       id="clipPath3846">
      <path
         clip-rule="nonzero"
         d="M 6,3 H 9 V 7.144531 H 6 Z m 0,0"
         id="path3411" />
    </clipPath>
    <clipPath
       id="clipPath2838">
      <path
         clip-rule="nonzero"
         d="M 6,3 H 9 V 7.144531 H 6 Z m 0,0"
         id="path8654" />
    </clipPath>
  </defs>
  <g
     inkscape:label="图层 1"
     inkscape:groupmode="layer"
     id="layer1">
    <path
       style="fill:#000000;stroke:#000000;stroke-width:0.2;stroke-dasharray:none;marker-end:url(#Arrow1)"
       d="M 36.902241,129.62773 H 165.59019"
       id="path1136" />
    <path
       style="fill:#000000;stroke:#000000;stroke-width:0.2;stroke-dasharray:none"
       d="m 105.83726,129.56093 -0.0221,-1.174"
       id="path1174" />
    <path
       style="fill:#000000;stroke:#000000;stroke-width:0.2;stroke-dasharray:none"
       d="m 119.01708,129.62738 0.0221,-1.3069"
       id="path1178" />
    <path
       style="fill:#000000;stroke:#000000;stroke-width:0.2;stroke-dasharray:none"
       d="m 132.31876,129.72791 v -1.41766"
       id="path1172-5" />
    <path
       style="fill:#000000;stroke:#000000;stroke-width:0.2;stroke-dasharray:none"
       d="m 145.54288,129.5507 0.0221,-1.24045"
       id="path1176-0" />
    <path
       style="fill:#000000;stroke:#000000;stroke-width:0.2;stroke-dasharray:none"
       d="m 158.83345,129.6393 0.0221,-1.3069"
       id="path1178-7" />
    <path
       style="fill:#000000;stroke:#000000;stroke-width:0.2;stroke-dasharray:none"
       d="m 66.198157,129.63931 v -1.41766"
       id="path1172-8" />
    <path
       style="fill:#000000;stroke:#000000;stroke-width:0.2;stroke-dasharray:none"
       d="m 79.422282,129.4621 0.0221,-1.24045"
       id="path1176-5" />
    <path
       style="fill:#000000;stroke:#000000;stroke-width:0.2;stroke-dasharray:none"
       d="m 92.646402,129.57286 0.0221,-1.35121"
       id="path1184-0" />
    <path
       style="fill:#000000;stroke:#000000;stroke-width:0.22891;stroke-dasharray:none"
       d="m 51.582404,129.64323 0.02901,-1.34858"
       id="path1184-0-9" />
    <g
       inkscape:label=""
       transform="translate(104.94267,130.53612)"
       id="g3238">
      <g
         fill="#000000"
         fill-opacity="1"
         id="g19"
         transform="matrix(0.352778,0,0,0.352778,-0.132292,0.0235039)">
        <g
           id="use17"
           transform="translate(0,2.5739999)">
          <path
             d="m 3.375,-2.359375 c -0.21875,0.0625 -0.265625,0.234375 -0.265625,0.328125 0,0.1875 0.15625,0.234375 0.234375,0.234375 0.1875,0 0.359375,-0.140625 0.359375,-0.375 0,-0.328125 -0.359375,-0.46875 -0.65625,-0.46875 -0.40625,0 -0.640625,0.3125 -0.703125,0.421875 -0.078125,-0.15625 -0.3125,-0.421875 -0.765625,-0.421875 -0.6875,0 -1.09375,0.71875 -1.09375,0.921875 0,0.03125 0.03125,0.078125 0.109375,0.078125 0.09375,0 0.109375,-0.03125 0.125,-0.078125 0.15625,-0.484375 0.5625,-0.71875 0.84375,-0.71875 0.296875,0 0.390625,0.1875 0.390625,0.390625 0,0.0625 0,0.125 -0.046875,0.3125 -0.140625,0.546875 -0.265625,1.09375 -0.296875,1.171875 -0.09375,0.21875 -0.3125,0.421875 -0.5625,0.421875 -0.03125,0 -0.203125,0 -0.34375,-0.09375 C 0.9375,-0.3125 0.96875,-0.5 0.96875,-0.546875 c 0,-0.15625 -0.125,-0.234375 -0.25,-0.234375 -0.15625,0 -0.34375,0.125 -0.34375,0.375 0,0.34375 0.375,0.46875 0.65625,0.46875 0.34375,0 0.59375,-0.234375 0.703125,-0.421875 0.125,0.25 0.40625,0.421875 0.75,0.421875 0.703125,0 1.09375,-0.734375 1.09375,-0.921875 0,-0.015625 0,-0.09375 -0.109375,-0.09375 -0.078125,0 -0.09375,0.046875 -0.109375,0.109375 C 3.1875,-0.328125 2.765625,-0.140625 2.5,-0.140625 c -0.21875,0 -0.375,-0.125 -0.375,-0.375 0,-0.125 0.015625,-0.25 0.078125,-0.453125 L 2.390625,-1.75 c 0.0625,-0.234375 0.09375,-0.34375 0.21875,-0.484375 C 2.6875,-2.328125 2.84375,-2.4375 3.03125,-2.4375 c 0.03125,0 0.203125,0 0.34375,0.078125 z m 0,0"
             id="path31" />
        </g>
      </g>
      <g
         clip-path="url(#clipPath2582)"
         id="g25"
         transform="matrix(0.352778,0,0,0.352778,-0.132292,0.0235039)">
        <g
           fill="#000000"
           fill-opacity="1"
           id="g23">
          <g
             id="use21"
             transform="translate(4.1719999,3.835)">
            <path
               d="m 1.96875,-3.109375 c 0,-0.125 -0.078125,-0.21875 -0.21875,-0.21875 -0.140625,0 -0.296875,0.140625 -0.296875,0.296875 0,0.140625 0.109375,0.21875 0.21875,0.21875 0.15625,0 0.296875,-0.140625 0.296875,-0.296875 z m 0.234375,2.390625 c 0,-0.0625 -0.078125,-0.0625 -0.09375,-0.0625 -0.09375,0 -0.09375,0.015625 -0.125,0.109375 -0.078125,0.265625 -0.3125,0.5625 -0.5625,0.5625 -0.109375,0 -0.140625,-0.078125 -0.140625,-0.1875 0,-0.109375 0.015625,-0.171875 0.0625,-0.265625 0.03125,-0.09375 0.078125,-0.1875 0.109375,-0.265625 0.015625,-0.046875 0.203125,-0.5 0.28125,-0.6875 0.03125,-0.09375 0.0625,-0.171875 0.0625,-0.25 0,-0.234375 -0.234375,-0.4375 -0.546875,-0.4375 -0.515625,0 -0.796875,0.640625 -0.796875,0.765625 0,0.078125 0.078125,0.078125 0.109375,0.078125 0.078125,0 0.078125,-0.03125 0.109375,-0.09375 0.109375,-0.359375 0.34375,-0.578125 0.5625,-0.578125 0.09375,0 0.15625,0.046875 0.15625,0.1875 0,0.015625 0,0.078125 -0.03125,0.171875 -0.03125,0.09375 -0.265625,0.625 -0.328125,0.796875 -0.046875,0.09375 -0.046875,0.09375 -0.109375,0.265625 -0.03125,0.078125 -0.0625,0.140625 -0.0625,0.21875 0,0.265625 0.25,0.453125 0.546875,0.453125 0.515625,0 0.796875,-0.65625 0.796875,-0.78125 z m 0,0"
               id="path35" />
          </g>
        </g>
      </g>
    </g>
    <g
       inkscape:label=""
       transform="translate(117.47314,130.66143)"
       id="g4069">
      <g
         fill="#000000"
         fill-opacity="1"
         id="g26"
         transform="matrix(0.352778,0,0,0.352778,-0.132292,0.0235039)">
        <g
           id="use24"
           transform="translate(0,2.5739999)">
          <path
             d="m 3.375,-2.359375 c -0.21875,0.0625 -0.265625,0.234375 -0.265625,0.328125 0,0.1875 0.15625,0.234375 0.234375,0.234375 0.1875,0 0.359375,-0.140625 0.359375,-0.375 0,-0.328125 -0.359375,-0.46875 -0.65625,-0.46875 -0.40625,0 -0.640625,0.3125 -0.703125,0.421875 -0.078125,-0.15625 -0.3125,-0.421875 -0.765625,-0.421875 -0.6875,0 -1.09375,0.71875 -1.09375,0.921875 0,0.03125 0.03125,0.078125 0.109375,0.078125 0.09375,0 0.109375,-0.03125 0.125,-0.078125 0.15625,-0.484375 0.5625,-0.71875 0.84375,-0.71875 0.296875,0 0.390625,0.1875 0.390625,0.390625 0,0.0625 0,0.125 -0.046875,0.3125 -0.140625,0.546875 -0.265625,1.09375 -0.296875,1.171875 -0.09375,0.21875 -0.3125,0.421875 -0.5625,0.421875 -0.03125,0 -0.203125,0 -0.34375,-0.09375 C 0.9375,-0.3125 0.96875,-0.5 0.96875,-0.546875 c 0,-0.15625 -0.125,-0.234375 -0.25,-0.234375 -0.15625,0 -0.34375,0.125 -0.34375,0.375 0,0.34375 0.375,0.46875 0.65625,0.46875 0.34375,0 0.59375,-0.234375 0.703125,-0.421875 0.125,0.25 0.40625,0.421875 0.75,0.421875 0.703125,0 1.09375,-0.734375 1.09375,-0.921875 0,-0.015625 0,-0.09375 -0.109375,-0.09375 -0.078125,0 -0.09375,0.046875 -0.109375,0.109375 C 3.1875,-0.328125 2.765625,-0.140625 2.5,-0.140625 c -0.21875,0 -0.375,-0.125 -0.375,-0.375 0,-0.125 0.015625,-0.25 0.078125,-0.453125 L 2.390625,-1.75 c 0.0625,-0.234375 0.09375,-0.34375 0.21875,-0.484375 C 2.6875,-2.328125 2.84375,-2.4375 3.03125,-2.4375 c 0.03125,0 0.203125,0 0.34375,0.078125 z m 0,0"
             id="path44" />
        </g>
      </g>
      <g
         fill="#000000"
         fill-opacity="1"
         id="g30"
         transform="matrix(0.352778,0,0,0.352778,-0.132292,0.0235039)">
        <g
           id="use28"
           transform="translate(4.1719999,3.836)">
          <path
             d="m 1.96875,-3.109375 c 0,-0.125 -0.078125,-0.21875 -0.21875,-0.21875 -0.140625,0 -0.296875,0.140625 -0.296875,0.296875 0,0.140625 0.109375,0.21875 0.21875,0.21875 0.15625,0 0.296875,-0.140625 0.296875,-0.296875 z m 0.234375,2.390625 c 0,-0.0625 -0.078125,-0.0625 -0.09375,-0.0625 -0.09375,0 -0.09375,0.015625 -0.125,0.109375 -0.078125,0.265625 -0.3125,0.5625 -0.5625,0.5625 -0.109375,0 -0.140625,-0.078125 -0.140625,-0.1875 0,-0.109375 0.015625,-0.171875 0.0625,-0.265625 0.03125,-0.09375 0.078125,-0.1875 0.109375,-0.265625 0.015625,-0.046875 0.203125,-0.5 0.28125,-0.6875 0.03125,-0.09375 0.0625,-0.171875 0.0625,-0.25 0,-0.234375 -0.234375,-0.4375 -0.546875,-0.4375 -0.515625,0 -0.796875,0.640625 -0.796875,0.765625 0,0.078125 0.078125,0.078125 0.109375,0.078125 0.078125,0 0.078125,-0.03125 0.109375,-0.09375 0.109375,-0.359375 0.34375,-0.578125 0.5625,-0.578125 0.09375,0 0.15625,0.046875 0.15625,0.1875 0,0.015625 0,0.078125 -0.03125,0.171875 -0.03125,0.09375 -0.265625,0.625 -0.328125,0.796875 -0.046875,0.09375 -0.046875,0.09375 -0.109375,0.265625 -0.03125,0.078125 -0.0625,0.140625 -0.0625,0.21875 0,0.265625 0.25,0.453125 0.546875,0.453125 0.515625,0 0.796875,-0.65625 0.796875,-0.78125 z m 0,0"
             id="path48" />
        </g>
      </g>
      <g
         clip-path="url(#clipPath2800)"
         id="g38"
         transform="matrix(0.352778,0,0,0.352778,-0.132292,0.0235039)">
        <g
           fill="#000000"
           fill-opacity="1"
           id="g36">
          <g
             id="use32"
             transform="translate(6.8299999,3.836)">
            <path
               d="M 2.703125,-1.109375 H 4.4375 c 0.0625,0 0.203125,0 0.203125,-0.140625 C 4.640625,-1.390625 4.5,-1.390625 4.4375,-1.390625 H 2.703125 V -3.125 c 0,-0.0625 0,-0.203125 -0.140625,-0.203125 -0.140625,0 -0.140625,0.140625 -0.140625,0.203125 v 1.734375 H 0.6875 c -0.0625,0 -0.203125,0 -0.203125,0.140625 0,0.140625 0.140625,0.140625 0.203125,0.140625 H 2.421875 V 0.625 c 0,0.078125 0,0.203125 0.140625,0.203125 0.140625,0 0.140625,-0.125 0.140625,-0.203125 z m 0,0"
               id="path52" />
          </g>
          <g
             id="use34"
             transform="translate(11.94978,3.836)">
            <path
               d="M 1.984375,-3.171875 C 1.984375,-3.3125 1.96875,-3.3125 1.796875,-3.3125 1.453125,-3 0.890625,-3 0.796875,-3 H 0.71875 v 0.21875 h 0.078125 c 0.109375,0 0.4375,-0.015625 0.734375,-0.140625 v 2.5 c 0,0.140625 0,0.203125 -0.53125,0.203125 H 0.75 V 0 c 0.265625,-0.015625 0.71875,-0.015625 1,-0.015625 0.296875,0 0.734375,0 1.015625,0.015625 v -0.21875 h -0.25 c -0.53125,0 -0.53125,-0.0625 -0.53125,-0.203125 z m 0,0"
               id="path56" />
          </g>
        </g>
      </g>
    </g>
    <g
       inkscape:label=""
       transform="translate(130.69279,130.59877)"
       id="g4943">
      <g
         fill="#000000"
         fill-opacity="1"
         id="g4923"
         transform="matrix(0.352778,0,0,0.352778,-0.132292,0.0235039)">
        <g
           id="g4921"
           transform="translate(0,2.5739999)">
          <path
             d="m 3.375,-2.359375 c -0.21875,0.0625 -0.265625,0.234375 -0.265625,0.328125 0,0.1875 0.15625,0.234375 0.234375,0.234375 0.1875,0 0.359375,-0.140625 0.359375,-0.375 0,-0.328125 -0.359375,-0.46875 -0.65625,-0.46875 -0.40625,0 -0.640625,0.3125 -0.703125,0.421875 -0.078125,-0.15625 -0.3125,-0.421875 -0.765625,-0.421875 -0.6875,0 -1.09375,0.71875 -1.09375,0.921875 0,0.03125 0.03125,0.078125 0.109375,0.078125 0.09375,0 0.109375,-0.03125 0.125,-0.078125 0.15625,-0.484375 0.5625,-0.71875 0.84375,-0.71875 0.296875,0 0.390625,0.1875 0.390625,0.390625 0,0.0625 0,0.125 -0.046875,0.3125 -0.140625,0.546875 -0.265625,1.09375 -0.296875,1.171875 -0.09375,0.21875 -0.3125,0.421875 -0.5625,0.421875 -0.03125,0 -0.203125,0 -0.34375,-0.09375 C 0.9375,-0.3125 0.96875,-0.5 0.96875,-0.546875 c 0,-0.15625 -0.125,-0.234375 -0.25,-0.234375 -0.15625,0 -0.34375,0.125 -0.34375,0.375 0,0.34375 0.375,0.46875 0.65625,0.46875 0.34375,0 0.59375,-0.234375 0.703125,-0.421875 0.125,0.25 0.40625,0.421875 0.75,0.421875 0.703125,0 1.09375,-0.734375 1.09375,-0.921875 0,-0.015625 0,-0.09375 -0.109375,-0.09375 -0.078125,0 -0.09375,0.046875 -0.109375,0.109375 C 3.1875,-0.328125 2.765625,-0.140625 2.5,-0.140625 c -0.21875,0 -0.375,-0.125 -0.375,-0.375 0,-0.125 0.015625,-0.25 0.078125,-0.453125 L 2.390625,-1.75 c 0.0625,-0.234375 0.09375,-0.34375 0.21875,-0.484375 C 2.6875,-2.328125 2.84375,-2.4375 3.03125,-2.4375 c 0.03125,0 0.203125,0 0.34375,0.078125 z m 0,0"
             id="path4919" />
        </g>
      </g>
      <g
         fill="#000000"
         fill-opacity="1"
         id="g4929"
         transform="matrix(0.352778,0,0,0.352778,-0.132292,0.0235039)">
        <g
           id="g4927"
           transform="translate(4.1719999,3.836)">
          <path
             d="m 1.96875,-3.109375 c 0,-0.125 -0.078125,-0.21875 -0.21875,-0.21875 -0.140625,0 -0.296875,0.140625 -0.296875,0.296875 0,0.140625 0.109375,0.21875 0.21875,0.21875 0.15625,0 0.296875,-0.140625 0.296875,-0.296875 z m 0.234375,2.390625 c 0,-0.0625 -0.078125,-0.0625 -0.09375,-0.0625 -0.09375,0 -0.09375,0.015625 -0.125,0.109375 -0.078125,0.265625 -0.3125,0.5625 -0.5625,0.5625 -0.109375,0 -0.140625,-0.078125 -0.140625,-0.1875 0,-0.109375 0.015625,-0.171875 0.0625,-0.265625 0.03125,-0.09375 0.078125,-0.1875 0.109375,-0.265625 0.015625,-0.046875 0.203125,-0.5 0.28125,-0.6875 0.03125,-0.09375 0.0625,-0.171875 0.0625,-0.25 0,-0.234375 -0.234375,-0.4375 -0.546875,-0.4375 -0.515625,0 -0.796875,0.640625 -0.796875,0.765625 0,0.078125 0.078125,0.078125 0.109375,0.078125 0.078125,0 0.078125,-0.03125 0.109375,-0.09375 0.109375,-0.359375 0.34375,-0.578125 0.5625,-0.578125 0.09375,0 0.15625,0.046875 0.15625,0.1875 0,0.015625 0,0.078125 -0.03125,0.171875 -0.03125,0.09375 -0.265625,0.625 -0.328125,0.796875 -0.046875,0.09375 -0.046875,0.09375 -0.109375,0.265625 -0.03125,0.078125 -0.0625,0.140625 -0.0625,0.21875 0,0.265625 0.25,0.453125 0.546875,0.453125 0.515625,0 0.796875,-0.65625 0.796875,-0.78125 z m 0,0"
             id="path4925" />
        </g>
      </g>
      <g
         clip-path="url(#clipPath8149)"
         id="g4941"
         transform="matrix(0.352778,0,0,0.352778,-0.132292,0.0235039)">
        <g
           fill="#000000"
           fill-opacity="1"
           id="g4939">
          <g
             id="g4933"
             transform="translate(6.8299999,3.836)">
            <path
               d="M 2.703125,-1.109375 H 4.4375 c 0.0625,0 0.203125,0 0.203125,-0.140625 C 4.640625,-1.390625 4.5,-1.390625 4.4375,-1.390625 H 2.703125 V -3.125 c 0,-0.0625 0,-0.203125 -0.140625,-0.203125 -0.140625,0 -0.140625,0.140625 -0.140625,0.203125 v 1.734375 H 0.6875 c -0.0625,0 -0.203125,0 -0.203125,0.140625 0,0.140625 0.140625,0.140625 0.203125,0.140625 H 2.421875 V 0.625 c 0,0.078125 0,0.203125 0.140625,0.203125 0.140625,0 0.140625,-0.125 0.140625,-0.203125 z m 0,0"
               id="path4931" />
          </g>
          <g
             id="g4937"
             transform="translate(11.94978,3.836)">
            <path
               d="M 2.9375,-0.96875 H 2.71875 c 0,0.09375 -0.0625,0.40625 -0.140625,0.453125 -0.03125,0.03125 -0.453125,0.03125 -0.53125,0.03125 H 1.078125 C 1.40625,-0.71875 1.765625,-1 2.0625,-1.203125 c 0.453125,-0.3125 0.875,-0.59375 0.875,-1.125 0,-0.640625 -0.609375,-0.984375 -1.3125,-0.984375 -0.671875,0 -1.171875,0.375 -1.171875,0.875 0,0.25 0.21875,0.296875 0.296875,0.296875 0.125,0 0.28125,-0.09375 0.28125,-0.296875 0,-0.171875 -0.125,-0.28125 -0.28125,-0.28125 0.140625,-0.234375 0.4375,-0.375 0.765625,-0.375 0.484375,0 0.890625,0.28125 0.890625,0.765625 0,0.421875 -0.296875,0.75 -0.671875,1.0625 l -1.21875,1.03125 C 0.46875,-0.1875 0.453125,-0.1875 0.453125,-0.15625 V 0 h 2.3125 z m 0,0"
               id="path4935" />
          </g>
        </g>
      </g>
    </g>
    <g
       inkscape:label=""
       transform="translate(76.749103,130.28551)"
       id="g5835">
      <g
         fill="#000000"
         fill-opacity="1"
         id="g24"
         transform="matrix(0.352778,0,0,0.352778,-0.132292,0.0235039)">
        <g
           id="use22"
           transform="translate(0,2.5739999)">
          <path
             d="m 3.375,-2.359375 c -0.21875,0.0625 -0.265625,0.234375 -0.265625,0.328125 0,0.1875 0.15625,0.234375 0.234375,0.234375 0.1875,0 0.359375,-0.140625 0.359375,-0.375 0,-0.328125 -0.359375,-0.46875 -0.65625,-0.46875 -0.40625,0 -0.640625,0.3125 -0.703125,0.421875 -0.078125,-0.15625 -0.3125,-0.421875 -0.765625,-0.421875 -0.6875,0 -1.09375,0.71875 -1.09375,0.921875 0,0.03125 0.03125,0.078125 0.109375,0.078125 0.09375,0 0.109375,-0.03125 0.125,-0.078125 0.15625,-0.484375 0.5625,-0.71875 0.84375,-0.71875 0.296875,0 0.390625,0.1875 0.390625,0.390625 0,0.0625 0,0.125 -0.046875,0.3125 -0.140625,0.546875 -0.265625,1.09375 -0.296875,1.171875 -0.09375,0.21875 -0.3125,0.421875 -0.5625,0.421875 -0.03125,0 -0.203125,0 -0.34375,-0.09375 C 0.9375,-0.3125 0.96875,-0.5 0.96875,-0.546875 c 0,-0.15625 -0.125,-0.234375 -0.25,-0.234375 -0.15625,0 -0.34375,0.125 -0.34375,0.375 0,0.34375 0.375,0.46875 0.65625,0.46875 0.34375,0 0.59375,-0.234375 0.703125,-0.421875 0.125,0.25 0.40625,0.421875 0.75,0.421875 0.703125,0 1.09375,-0.734375 1.09375,-0.921875 0,-0.015625 0,-0.09375 -0.109375,-0.09375 -0.078125,0 -0.09375,0.046875 -0.109375,0.109375 C 3.1875,-0.328125 2.765625,-0.140625 2.5,-0.140625 c -0.21875,0 -0.375,-0.125 -0.375,-0.375 0,-0.125 0.015625,-0.25 0.078125,-0.453125 L 2.390625,-1.75 c 0.0625,-0.234375 0.09375,-0.34375 0.21875,-0.484375 C 2.6875,-2.328125 2.84375,-2.4375 3.03125,-2.4375 c 0.03125,0 0.203125,0 0.34375,0.078125 z m 0,0"
             id="path42" />
        </g>
      </g>
      <g
         fill="#000000"
         fill-opacity="1"
         id="g28"
         transform="matrix(0.352778,0,0,0.352778,-0.132292,0.0235039)">
        <g
           id="use26"
           transform="translate(4.1719999,3.836)">
          <path
             d="m 1.96875,-3.109375 c 0,-0.125 -0.078125,-0.21875 -0.21875,-0.21875 -0.140625,0 -0.296875,0.140625 -0.296875,0.296875 0,0.140625 0.109375,0.21875 0.21875,0.21875 0.15625,0 0.296875,-0.140625 0.296875,-0.296875 z m 0.234375,2.390625 c 0,-0.0625 -0.078125,-0.0625 -0.09375,-0.0625 -0.09375,0 -0.09375,0.015625 -0.125,0.109375 -0.078125,0.265625 -0.3125,0.5625 -0.5625,0.5625 -0.109375,0 -0.140625,-0.078125 -0.140625,-0.1875 0,-0.109375 0.015625,-0.171875 0.0625,-0.265625 0.03125,-0.09375 0.078125,-0.1875 0.109375,-0.265625 0.015625,-0.046875 0.203125,-0.5 0.28125,-0.6875 0.03125,-0.09375 0.0625,-0.171875 0.0625,-0.25 0,-0.234375 -0.234375,-0.4375 -0.546875,-0.4375 -0.515625,0 -0.796875,0.640625 -0.796875,0.765625 0,0.078125 0.078125,0.078125 0.109375,0.078125 0.078125,0 0.078125,-0.03125 0.109375,-0.09375 0.109375,-0.359375 0.34375,-0.578125 0.5625,-0.578125 0.09375,0 0.15625,0.046875 0.15625,0.1875 0,0.015625 0,0.078125 -0.03125,0.171875 -0.03125,0.09375 -0.265625,0.625 -0.328125,0.796875 -0.046875,0.09375 -0.046875,0.09375 -0.109375,0.265625 -0.03125,0.078125 -0.0625,0.140625 -0.0625,0.21875 0,0.265625 0.25,0.453125 0.546875,0.453125 0.515625,0 0.796875,-0.65625 0.796875,-0.78125 z m 0,0"
             id="path46" />
        </g>
      </g>
      <g
         fill="#000000"
         fill-opacity="1"
         id="g32"
         transform="matrix(0.352778,0,0,0.352778,-0.132292,0.0235039)">
        <g
           id="use30"
           transform="translate(6.8299999,3.836)">
          <path
             d="m 4.390625,-1.109375 c 0.078125,0 0.203125,0 0.203125,-0.140625 0,-0.140625 -0.125,-0.140625 -0.203125,-0.140625 h -3.375 c -0.078125,0 -0.21875,0 -0.21875,0.140625 0,0.140625 0.140625,0.140625 0.21875,0.140625 z m 0,0"
             id="path50" />
        </g>
      </g>
      <g
         fill="#000000"
         fill-opacity="1"
         id="g5833"
         transform="matrix(0.352778,0,0,0.352778,-0.132292,0.0235039)">
        <g
           id="g5831"
           transform="translate(12.226,3.836)">
          <path
             d="M 2.9375,-0.96875 H 2.71875 c 0,0.09375 -0.0625,0.40625 -0.140625,0.453125 -0.03125,0.03125 -0.453125,0.03125 -0.53125,0.03125 H 1.078125 C 1.40625,-0.71875 1.765625,-1 2.0625,-1.203125 c 0.453125,-0.3125 0.875,-0.59375 0.875,-1.125 0,-0.640625 -0.609375,-0.984375 -1.3125,-0.984375 -0.671875,0 -1.171875,0.375 -1.171875,0.875 0,0.25 0.21875,0.296875 0.296875,0.296875 0.125,0 0.28125,-0.09375 0.28125,-0.296875 0,-0.171875 -0.125,-0.28125 -0.28125,-0.28125 0.140625,-0.234375 0.4375,-0.375 0.765625,-0.375 0.484375,0 0.890625,0.28125 0.890625,0.765625 0,0.421875 -0.296875,0.75 -0.671875,1.0625 l -1.21875,1.03125 C 0.46875,-0.1875 0.453125,-0.1875 0.453125,-0.15625 V 0 h 2.3125 z m 0,0"
             id="path54" />
        </g>
      </g>
    </g>
    <g
       inkscape:label=""
       transform="translate(90.344665,130.34816)"
       id="g6761">
      <g
         fill="#000000"
         fill-opacity="1"
         id="g6741"
         transform="matrix(0.352778,0,0,0.352778,-0.132292,0.0235039)">
        <g
           id="g6739"
           transform="translate(0,2.5739999)">
          <path
             d="m 3.375,-2.359375 c -0.21875,0.0625 -0.265625,0.234375 -0.265625,0.328125 0,0.1875 0.15625,0.234375 0.234375,0.234375 0.1875,0 0.359375,-0.140625 0.359375,-0.375 0,-0.328125 -0.359375,-0.46875 -0.65625,-0.46875 -0.40625,0 -0.640625,0.3125 -0.703125,0.421875 -0.078125,-0.15625 -0.3125,-0.421875 -0.765625,-0.421875 -0.6875,0 -1.09375,0.71875 -1.09375,0.921875 0,0.03125 0.03125,0.078125 0.109375,0.078125 0.09375,0 0.109375,-0.03125 0.125,-0.078125 0.15625,-0.484375 0.5625,-0.71875 0.84375,-0.71875 0.296875,0 0.390625,0.1875 0.390625,0.390625 0,0.0625 0,0.125 -0.046875,0.3125 -0.140625,0.546875 -0.265625,1.09375 -0.296875,1.171875 -0.09375,0.21875 -0.3125,0.421875 -0.5625,0.421875 -0.03125,0 -0.203125,0 -0.34375,-0.09375 C 0.9375,-0.3125 0.96875,-0.5 0.96875,-0.546875 c 0,-0.15625 -0.125,-0.234375 -0.25,-0.234375 -0.15625,0 -0.34375,0.125 -0.34375,0.375 0,0.34375 0.375,0.46875 0.65625,0.46875 0.34375,0 0.59375,-0.234375 0.703125,-0.421875 0.125,0.25 0.40625,0.421875 0.75,0.421875 0.703125,0 1.09375,-0.734375 1.09375,-0.921875 0,-0.015625 0,-0.09375 -0.109375,-0.09375 -0.078125,0 -0.09375,0.046875 -0.109375,0.109375 C 3.1875,-0.328125 2.765625,-0.140625 2.5,-0.140625 c -0.21875,0 -0.375,-0.125 -0.375,-0.375 0,-0.125 0.015625,-0.25 0.078125,-0.453125 L 2.390625,-1.75 c 0.0625,-0.234375 0.09375,-0.34375 0.21875,-0.484375 C 2.6875,-2.328125 2.84375,-2.4375 3.03125,-2.4375 c 0.03125,0 0.203125,0 0.34375,0.078125 z m 0,0"
             id="path6737" />
        </g>
      </g>
      <g
         fill="#000000"
         fill-opacity="1"
         id="g6747"
         transform="matrix(0.352778,0,0,0.352778,-0.132292,0.0235039)">
        <g
           id="g6745"
           transform="translate(4.1719999,3.836)">
          <path
             d="m 1.96875,-3.109375 c 0,-0.125 -0.078125,-0.21875 -0.21875,-0.21875 -0.140625,0 -0.296875,0.140625 -0.296875,0.296875 0,0.140625 0.109375,0.21875 0.21875,0.21875 0.15625,0 0.296875,-0.140625 0.296875,-0.296875 z m 0.234375,2.390625 c 0,-0.0625 -0.078125,-0.0625 -0.09375,-0.0625 -0.09375,0 -0.09375,0.015625 -0.125,0.109375 -0.078125,0.265625 -0.3125,0.5625 -0.5625,0.5625 -0.109375,0 -0.140625,-0.078125 -0.140625,-0.1875 0,-0.109375 0.015625,-0.171875 0.0625,-0.265625 0.03125,-0.09375 0.078125,-0.1875 0.109375,-0.265625 0.015625,-0.046875 0.203125,-0.5 0.28125,-0.6875 0.03125,-0.09375 0.0625,-0.171875 0.0625,-0.25 0,-0.234375 -0.234375,-0.4375 -0.546875,-0.4375 -0.515625,0 -0.796875,0.640625 -0.796875,0.765625 0,0.078125 0.078125,0.078125 0.109375,0.078125 0.078125,0 0.078125,-0.03125 0.109375,-0.09375 0.109375,-0.359375 0.34375,-0.578125 0.5625,-0.578125 0.09375,0 0.15625,0.046875 0.15625,0.1875 0,0.015625 0,0.078125 -0.03125,0.171875 -0.03125,0.09375 -0.265625,0.625 -0.328125,0.796875 -0.046875,0.09375 -0.046875,0.09375 -0.109375,0.265625 -0.03125,0.078125 -0.0625,0.140625 -0.0625,0.21875 0,0.265625 0.25,0.453125 0.546875,0.453125 0.515625,0 0.796875,-0.65625 0.796875,-0.78125 z m 0,0"
             id="path6743" />
        </g>
      </g>
      <g
         fill="#000000"
         fill-opacity="1"
         id="g6753"
         transform="matrix(0.352778,0,0,0.352778,-0.132292,0.0235039)">
        <g
           id="g6751"
           transform="translate(6.8299999,3.836)">
          <path
             d="m 4.390625,-1.109375 c 0.078125,0 0.203125,0 0.203125,-0.140625 0,-0.140625 -0.125,-0.140625 -0.203125,-0.140625 h -3.375 c -0.078125,0 -0.21875,0 -0.21875,0.140625 0,0.140625 0.140625,0.140625 0.21875,0.140625 z m 0,0"
             id="path6749" />
        </g>
      </g>
      <g
         fill="#000000"
         fill-opacity="1"
         id="g6759"
         transform="matrix(0.352778,0,0,0.352778,-0.132292,0.0235039)">
        <g
           id="g6757"
           transform="translate(12.226,3.836)">
          <path
             d="M 1.984375,-3.171875 C 1.984375,-3.3125 1.96875,-3.3125 1.796875,-3.3125 1.453125,-3 0.890625,-3 0.796875,-3 H 0.71875 v 0.21875 h 0.078125 c 0.109375,0 0.4375,-0.015625 0.734375,-0.140625 v 2.5 c 0,0.140625 0,0.203125 -0.53125,0.203125 H 0.75 V 0 c 0.265625,-0.015625 0.71875,-0.015625 1,-0.015625 0.296875,0 0.734375,0 1.015625,0.015625 v -0.21875 h -0.25 c -0.53125,0 -0.53125,-0.0625 -0.53125,-0.203125 z m 0,0"
             id="path6755" />
        </g>
      </g>
    </g>
    <g
       inkscape:label=""
       transform="translate(90.344665,130.34816)"
       id="g6975">
      <g
         fill="#000000"
         fill-opacity="1"
         id="g6955"
         transform="matrix(0.352778,0,0,0.352778,-0.132292,0.0235039)">
        <g
           id="g6953"
           transform="translate(0,2.5739999)">
          <path
             d="m 3.375,-2.359375 c -0.21875,0.0625 -0.265625,0.234375 -0.265625,0.328125 0,0.1875 0.15625,0.234375 0.234375,0.234375 0.1875,0 0.359375,-0.140625 0.359375,-0.375 0,-0.328125 -0.359375,-0.46875 -0.65625,-0.46875 -0.40625,0 -0.640625,0.3125 -0.703125,0.421875 -0.078125,-0.15625 -0.3125,-0.421875 -0.765625,-0.421875 -0.6875,0 -1.09375,0.71875 -1.09375,0.921875 0,0.03125 0.03125,0.078125 0.109375,0.078125 0.09375,0 0.109375,-0.03125 0.125,-0.078125 0.15625,-0.484375 0.5625,-0.71875 0.84375,-0.71875 0.296875,0 0.390625,0.1875 0.390625,0.390625 0,0.0625 0,0.125 -0.046875,0.3125 -0.140625,0.546875 -0.265625,1.09375 -0.296875,1.171875 -0.09375,0.21875 -0.3125,0.421875 -0.5625,0.421875 -0.03125,0 -0.203125,0 -0.34375,-0.09375 C 0.9375,-0.3125 0.96875,-0.5 0.96875,-0.546875 c 0,-0.15625 -0.125,-0.234375 -0.25,-0.234375 -0.15625,0 -0.34375,0.125 -0.34375,0.375 0,0.34375 0.375,0.46875 0.65625,0.46875 0.34375,0 0.59375,-0.234375 0.703125,-0.421875 0.125,0.25 0.40625,0.421875 0.75,0.421875 0.703125,0 1.09375,-0.734375 1.09375,-0.921875 0,-0.015625 0,-0.09375 -0.109375,-0.09375 -0.078125,0 -0.09375,0.046875 -0.109375,0.109375 C 3.1875,-0.328125 2.765625,-0.140625 2.5,-0.140625 c -0.21875,0 -0.375,-0.125 -0.375,-0.375 0,-0.125 0.015625,-0.25 0.078125,-0.453125 L 2.390625,-1.75 c 0.0625,-0.234375 0.09375,-0.34375 0.21875,-0.484375 C 2.6875,-2.328125 2.84375,-2.4375 3.03125,-2.4375 c 0.03125,0 0.203125,0 0.34375,0.078125 z m 0,0"
             id="path6951" />
        </g>
      </g>
      <g
         fill="#000000"
         fill-opacity="1"
         id="g6961"
         transform="matrix(0.352778,0,0,0.352778,-0.132292,0.0235039)">
        <g
           id="g6959"
           transform="translate(4.1719999,3.836)">
          <path
             d="m 1.96875,-3.109375 c 0,-0.125 -0.078125,-0.21875 -0.21875,-0.21875 -0.140625,0 -0.296875,0.140625 -0.296875,0.296875 0,0.140625 0.109375,0.21875 0.21875,0.21875 0.15625,0 0.296875,-0.140625 0.296875,-0.296875 z m 0.234375,2.390625 c 0,-0.0625 -0.078125,-0.0625 -0.09375,-0.0625 -0.09375,0 -0.09375,0.015625 -0.125,0.109375 -0.078125,0.265625 -0.3125,0.5625 -0.5625,0.5625 -0.109375,0 -0.140625,-0.078125 -0.140625,-0.1875 0,-0.109375 0.015625,-0.171875 0.0625,-0.265625 0.03125,-0.09375 0.078125,-0.1875 0.109375,-0.265625 0.015625,-0.046875 0.203125,-0.5 0.28125,-0.6875 0.03125,-0.09375 0.0625,-0.171875 0.0625,-0.25 0,-0.234375 -0.234375,-0.4375 -0.546875,-0.4375 -0.515625,0 -0.796875,0.640625 -0.796875,0.765625 0,0.078125 0.078125,0.078125 0.109375,0.078125 0.078125,0 0.078125,-0.03125 0.109375,-0.09375 0.109375,-0.359375 0.34375,-0.578125 0.5625,-0.578125 0.09375,0 0.15625,0.046875 0.15625,0.1875 0,0.015625 0,0.078125 -0.03125,0.171875 -0.03125,0.09375 -0.265625,0.625 -0.328125,0.796875 -0.046875,0.09375 -0.046875,0.09375 -0.109375,0.265625 -0.03125,0.078125 -0.0625,0.140625 -0.0625,0.21875 0,0.265625 0.25,0.453125 0.546875,0.453125 0.515625,0 0.796875,-0.65625 0.796875,-0.78125 z m 0,0"
             id="path6957" />
        </g>
      </g>
      <g
         fill="#000000"
         fill-opacity="1"
         id="g6967"
         transform="matrix(0.352778,0,0,0.352778,-0.132292,0.0235039)">
        <g
           id="g6965"
           transform="translate(6.8299999,3.836)">
          <path
             d="m 4.390625,-1.109375 c 0.078125,0 0.203125,0 0.203125,-0.140625 0,-0.140625 -0.125,-0.140625 -0.203125,-0.140625 h -3.375 c -0.078125,0 -0.21875,0 -0.21875,0.140625 0,0.140625 0.140625,0.140625 0.21875,0.140625 z m 0,0"
             id="path6963" />
        </g>
      </g>
      <g
         fill="#000000"
         fill-opacity="1"
         id="g6973"
         transform="matrix(0.352778,0,0,0.352778,-0.132292,0.0235039)">
        <g
           id="g6971"
           transform="translate(12.226,3.836)">
          <path
             d="M 1.984375,-3.171875 C 1.984375,-3.3125 1.96875,-3.3125 1.796875,-3.3125 1.453125,-3 0.890625,-3 0.796875,-3 H 0.71875 v 0.21875 h 0.078125 c 0.109375,0 0.4375,-0.015625 0.734375,-0.140625 v 2.5 c 0,0.140625 0,0.203125 -0.53125,0.203125 H 0.75 V 0 c 0.265625,-0.015625 0.71875,-0.015625 1,-0.015625 0.296875,0 0.734375,0 1.015625,0.015625 v -0.21875 h -0.25 c -0.53125,0 -0.53125,-0.0625 -0.53125,-0.203125 z m 0,0"
             id="path6969" />
        </g>
      </g>
    </g>
    <path
       sodipodi:type="star"
       style="fill:#ff0000;fill-opacity:0.50408721;stroke:none;stroke-width:0.2;stroke-dasharray:none"
       id="path7422"
       inkscape:flatsided="false"
       sodipodi:sides="3"
       sodipodi:cx="99.429298"
       sodipodi:cy="93.53997"
       sodipodi:r1="13.304152"
       sodipodi:r2="6.6520758"
       sodipodi:arg1="0.52265077"
       sodipodi:arg2="1.5698483"
       inkscape:rounded="0"
       inkscape:randomized="0"
       d="m 110.95733,100.18112 -11.521725,0.0109 -11.521728,0.0109 5.751404,-9.983575 5.751405,-9.98357 5.770324,9.972648 z"
       inkscape:transform-center-x="-0.0071778872"
       inkscape:transform-center-y="-3.6539857"
       transform="matrix(1.1386628,0,0,1.1004088,-7.3661536,19.385356)" />
    <path
       sodipodi:type="star"
       style="fill:#00ff00;fill-opacity:0.504087;stroke:none;stroke-width:0.2;stroke-dasharray:none"
       id="path7422-8"
       inkscape:flatsided="false"
       sodipodi:sides="3"
       sodipodi:cx="99.429298"
       sodipodi:cy="93.53997"
       sodipodi:r1="13.304152"
       sodipodi:r2="6.6520758"
       sodipodi:arg1="0.52265077"
       sodipodi:arg2="1.5698483"
       inkscape:rounded="0"
       inkscape:randomized="0"
       d="m 110.95733,100.18112 -11.521725,0.0109 -11.521728,0.0109 5.751404,-9.983575 5.751405,-9.98357 5.770324,9.972648 z"
       inkscape:transform-center-x="-0.0072449843"
       inkscape:transform-center-y="-3.6513774"
       transform="matrix(1.1495383,0,0,1.0996244,4.7971011,19.573601)" />
    <path
       sodipodi:type="star"
       style="fill:#0000ff;fill-opacity:0.504087;stroke:none;stroke-width:0.2;stroke-dasharray:none"
       id="path7422-9"
       inkscape:flatsided="false"
       sodipodi:sides="3"
       sodipodi:cx="99.429298"
       sodipodi:cy="93.53997"
       sodipodi:r1="13.304152"
       sodipodi:r2="6.6520758"
       sodipodi:arg1="0.52265077"
       sodipodi:arg2="1.5698483"
       inkscape:rounded="0"
       inkscape:randomized="0"
       d="m 110.95733,100.18112 -11.521725,0.0109 -11.521728,0.0109 5.751404,-9.983575 5.751405,-9.98357 5.770324,9.972648 z"
       inkscape:transform-center-x="-0.0071930905"
       inkscape:transform-center-y="-3.6696112"
       transform="matrix(1.1400223,0,0,1.1051155,-20.680295,18.819756)" />
    <path
       sodipodi:type="star"
       style="fill:#ffff00;fill-opacity:0.50408721;stroke:none;stroke-width:0.2;stroke-dasharray:none"
       id="path7422-8-2"
       inkscape:flatsided="false"
       sodipodi:sides="3"
       sodipodi:cx="99.429298"
       sodipodi:cy="93.53997"
       sodipodi:r1="13.304152"
       sodipodi:r2="6.6520758"
       sodipodi:arg1="0.52265077"
       sodipodi:arg2="1.5698483"
       inkscape:rounded="0"
       inkscape:randomized="0"
       d="m 110.95733,100.18112 -11.521725,0.0109 -11.521728,0.0109 5.751404,-9.983575 5.751405,-9.98357 5.770324,9.972648 z"
       inkscape:transform-center-x="-0.0072449843"
       inkscape:transform-center-y="-3.6513774"
       transform="matrix(1.1495383,0,0,1.0996244,17.936164,19.388763)" />
    <path
       sodipodi:type="star"
       style="fill:#00fffe;fill-opacity:0.50408721;stroke:none;stroke-width:0.2;stroke-dasharray:none"
       id="path7422-8-2-4"
       inkscape:flatsided="false"
       sodipodi:sides="3"
       sodipodi:cx="99.429298"
       sodipodi:cy="93.53997"
       sodipodi:r1="13.304152"
       sodipodi:r2="6.6520758"
       sodipodi:arg1="0.52265077"
       sodipodi:arg2="1.5698483"
       inkscape:rounded="0"
       inkscape:randomized="0"
       d="m 110.95733,100.18112 -11.521725,0.0109 -11.521728,0.0109 5.751404,-9.983575 5.751405,-9.98357 5.770324,9.972648 z"
       inkscape:transform-center-x="-0.0072449843"
       inkscape:transform-center-y="-3.6513774"
       transform="matrix(1.1495383,0,0,1.0996244,-34.799189,19.330819)" />
    <g
       inkscape:label=""
       transform="translate(107.13553,106.79092)"
       id="g1292">
      <g
         fill="#000000"
         fill-opacity="1"
         id="g1282"
         transform="matrix(0.352778,0,0,0.352778,-0.187413,0.0235039)">
        <g
           id="g1280"
           transform="translate(0,2.5739999)">
          <path
             d="m 1.625,-2.5625 c 0,-0.015625 -0.015625,-0.078125 -0.109375,-0.078125 0,0 -0.359375,0.03125 -0.40625,0.03125 -0.171875,0.015625 -0.1875,0.015625 -0.34375,0.03125 -0.109375,0 -0.171875,0.015625 -0.171875,0.15625 0,0.09375 0.078125,0.09375 0.171875,0.09375 0.09375,0 0.171875,0 0.171875,0 0.109375,0.015625 0.109375,0.03125 0.109375,0.078125 0,0.046875 -0.046875,0.28125 -0.09375,0.40625 L 0.8125,-1.265625 0.578125,-0.28125 C 0.5625,-0.234375 0.53125,-0.109375 0.53125,-0.09375 0.53125,0 0.609375,0 0.640625,0 H 0.75 c 0.796875,-0.125 1.53125,-0.5 2.046875,-0.953125 0.796875,-0.6875 0.921875,-1.4375 0.921875,-1.484375 0,-0.140625 -0.109375,-0.203125 -0.203125,-0.203125 -0.078125,0 -0.234375,0.03125 -0.28125,0.234375 -0.359375,1.25 -1.375,1.875 -2.03125,2.09375 L 1.0625,-0.265625 Z m 0,0"
             id="path1278" />
        </g>
      </g>
      <g
         clip-path="url(#clipPath4896)"
         id="g1290"
         transform="matrix(0.352778,0,0,0.352778,-0.187413,0.0235039)">
        <g
           fill="#000000"
           fill-opacity="1"
           id="g1288">
          <g
             id="g1286"
             transform="translate(3.7149999,3.835)">
            <path
               d="m 1.96875,-3.109375 c 0,-0.125 -0.078125,-0.21875 -0.21875,-0.21875 -0.140625,0 -0.296875,0.140625 -0.296875,0.296875 0,0.140625 0.109375,0.21875 0.21875,0.21875 0.15625,0 0.296875,-0.140625 0.296875,-0.296875 z m 0.234375,2.390625 c 0,-0.0625 -0.078125,-0.0625 -0.09375,-0.0625 -0.09375,0 -0.09375,0.015625 -0.125,0.109375 -0.078125,0.265625 -0.3125,0.5625 -0.5625,0.5625 -0.109375,0 -0.140625,-0.078125 -0.140625,-0.1875 0,-0.109375 0.015625,-0.171875 0.0625,-0.265625 0.03125,-0.09375 0.078125,-0.1875 0.109375,-0.265625 0.015625,-0.046875 0.203125,-0.5 0.28125,-0.6875 0.03125,-0.09375 0.0625,-0.171875 0.0625,-0.25 0,-0.234375 -0.234375,-0.4375 -0.546875,-0.4375 -0.515625,0 -0.796875,0.640625 -0.796875,0.765625 0,0.078125 0.078125,0.078125 0.109375,0.078125 0.078125,0 0.078125,-0.03125 0.109375,-0.09375 0.109375,-0.359375 0.34375,-0.578125 0.5625,-0.578125 0.09375,0 0.15625,0.046875 0.15625,0.1875 0,0.015625 0,0.078125 -0.03125,0.171875 -0.03125,0.09375 -0.265625,0.625 -0.328125,0.796875 -0.046875,0.09375 -0.046875,0.09375 -0.109375,0.265625 -0.03125,0.078125 -0.0625,0.140625 -0.0625,0.21875 0,0.265625 0.25,0.453125 0.546875,0.453125 0.515625,0 0.796875,-0.65625 0.796875,-0.78125 z m 0,0"
               id="path1284" />
          </g>
        </g>
      </g>
    </g>
    <g
       inkscape:label=""
       transform="translate(120.54313,106.97888)"
       id="g1553">
      <g
         fill="#000000"
         fill-opacity="1"
         id="g1533"
         transform="matrix(0.352778,0,0,0.352778,-0.187413,0.0235039)">
        <g
           id="g1531"
           transform="translate(0,2.5739999)">
          <path
             d="m 1.625,-2.5625 c 0,-0.015625 -0.015625,-0.078125 -0.109375,-0.078125 0,0 -0.359375,0.03125 -0.40625,0.03125 -0.171875,0.015625 -0.1875,0.015625 -0.34375,0.03125 -0.109375,0 -0.171875,0.015625 -0.171875,0.15625 0,0.09375 0.078125,0.09375 0.171875,0.09375 0.09375,0 0.171875,0 0.171875,0 0.109375,0.015625 0.109375,0.03125 0.109375,0.078125 0,0.046875 -0.046875,0.28125 -0.09375,0.40625 L 0.8125,-1.265625 0.578125,-0.28125 C 0.5625,-0.234375 0.53125,-0.109375 0.53125,-0.09375 0.53125,0 0.609375,0 0.640625,0 H 0.75 c 0.796875,-0.125 1.53125,-0.5 2.046875,-0.953125 0.796875,-0.6875 0.921875,-1.4375 0.921875,-1.484375 0,-0.140625 -0.109375,-0.203125 -0.203125,-0.203125 -0.078125,0 -0.234375,0.03125 -0.28125,0.234375 -0.359375,1.25 -1.375,1.875 -2.03125,2.09375 L 1.0625,-0.265625 Z m 0,0"
             id="path1529" />
        </g>
      </g>
      <g
         fill="#000000"
         fill-opacity="1"
         id="g1539"
         transform="matrix(0.352778,0,0,0.352778,-0.187413,0.0235039)">
        <g
           id="g1537"
           transform="translate(3.7149999,3.836)">
          <path
             d="m 1.96875,-3.109375 c 0,-0.125 -0.078125,-0.21875 -0.21875,-0.21875 -0.140625,0 -0.296875,0.140625 -0.296875,0.296875 0,0.140625 0.109375,0.21875 0.21875,0.21875 0.15625,0 0.296875,-0.140625 0.296875,-0.296875 z m 0.234375,2.390625 c 0,-0.0625 -0.078125,-0.0625 -0.09375,-0.0625 -0.09375,0 -0.09375,0.015625 -0.125,0.109375 -0.078125,0.265625 -0.3125,0.5625 -0.5625,0.5625 -0.109375,0 -0.140625,-0.078125 -0.140625,-0.1875 0,-0.109375 0.015625,-0.171875 0.0625,-0.265625 0.03125,-0.09375 0.078125,-0.1875 0.109375,-0.265625 0.015625,-0.046875 0.203125,-0.5 0.28125,-0.6875 0.03125,-0.09375 0.0625,-0.171875 0.0625,-0.25 0,-0.234375 -0.234375,-0.4375 -0.546875,-0.4375 -0.515625,0 -0.796875,0.640625 -0.796875,0.765625 0,0.078125 0.078125,0.078125 0.109375,0.078125 0.078125,0 0.078125,-0.03125 0.109375,-0.09375 0.109375,-0.359375 0.34375,-0.578125 0.5625,-0.578125 0.09375,0 0.15625,0.046875 0.15625,0.1875 0,0.015625 0,0.078125 -0.03125,0.171875 -0.03125,0.09375 -0.265625,0.625 -0.328125,0.796875 -0.046875,0.09375 -0.046875,0.09375 -0.109375,0.265625 -0.03125,0.078125 -0.0625,0.140625 -0.0625,0.21875 0,0.265625 0.25,0.453125 0.546875,0.453125 0.515625,0 0.796875,-0.65625 0.796875,-0.78125 z m 0,0"
             id="path1535" />
        </g>
      </g>
      <g
         clip-path="url(#clipPath4259)"
         id="g1551"
         transform="matrix(0.352778,0,0,0.352778,-0.187413,0.0235039)">
        <g
           fill="#000000"
           fill-opacity="1"
           id="g1549">
          <g
             id="g1543"
             transform="translate(6.3730001,3.836)">
            <path
               d="M 2.703125,-1.109375 H 4.4375 c 0.0625,0 0.203125,0 0.203125,-0.140625 C 4.640625,-1.390625 4.5,-1.390625 4.4375,-1.390625 H 2.703125 V -3.125 c 0,-0.0625 0,-0.203125 -0.140625,-0.203125 -0.140625,0 -0.140625,0.140625 -0.140625,0.203125 v 1.734375 H 0.6875 c -0.0625,0 -0.203125,0 -0.203125,0.140625 0,0.140625 0.140625,0.140625 0.203125,0.140625 H 2.421875 V 0.625 c 0,0.078125 0,0.203125 0.140625,0.203125 0.140625,0 0.140625,-0.125 0.140625,-0.203125 z m 0,0"
               id="path1541" />
          </g>
          <g
             id="g1547"
             transform="translate(11.49278,3.836)">
            <path
               d="M 1.984375,-3.171875 C 1.984375,-3.3125 1.96875,-3.3125 1.796875,-3.3125 1.453125,-3 0.890625,-3 0.796875,-3 H 0.71875 v 0.21875 h 0.078125 c 0.109375,0 0.4375,-0.015625 0.734375,-0.140625 v 2.5 c 0,0.140625 0,0.203125 -0.53125,0.203125 H 0.75 V 0 c 0.265625,-0.015625 0.71875,-0.015625 1,-0.015625 0.296875,0 0.734375,0 1.015625,0.015625 v -0.21875 h -0.25 c -0.53125,0 -0.53125,-0.0625 -0.53125,-0.203125 z m 0,0"
               id="path1545" />
          </g>
        </g>
      </g>
    </g>
    <g
       inkscape:label=""
       transform="translate(134.07604,107.54275)"
       id="g1849">
      <g
         fill="#000000"
         fill-opacity="1"
         id="g1829"
         transform="matrix(0.352778,0,0,0.352778,-0.187413,0.0235039)">
        <g
           id="g1827"
           transform="translate(0,2.5739999)">
          <path
             d="m 1.625,-2.5625 c 0,-0.015625 -0.015625,-0.078125 -0.109375,-0.078125 0,0 -0.359375,0.03125 -0.40625,0.03125 -0.171875,0.015625 -0.1875,0.015625 -0.34375,0.03125 -0.109375,0 -0.171875,0.015625 -0.171875,0.15625 0,0.09375 0.078125,0.09375 0.171875,0.09375 0.09375,0 0.171875,0 0.171875,0 0.109375,0.015625 0.109375,0.03125 0.109375,0.078125 0,0.046875 -0.046875,0.28125 -0.09375,0.40625 L 0.8125,-1.265625 0.578125,-0.28125 C 0.5625,-0.234375 0.53125,-0.109375 0.53125,-0.09375 0.53125,0 0.609375,0 0.640625,0 H 0.75 c 0.796875,-0.125 1.53125,-0.5 2.046875,-0.953125 0.796875,-0.6875 0.921875,-1.4375 0.921875,-1.484375 0,-0.140625 -0.109375,-0.203125 -0.203125,-0.203125 -0.078125,0 -0.234375,0.03125 -0.28125,0.234375 -0.359375,1.25 -1.375,1.875 -2.03125,2.09375 L 1.0625,-0.265625 Z m 0,0"
             id="path1825" />
        </g>
      </g>
      <g
         fill="#000000"
         fill-opacity="1"
         id="g1835"
         transform="matrix(0.352778,0,0,0.352778,-0.187413,0.0235039)">
        <g
           id="g1833"
           transform="translate(3.7149999,3.836)">
          <path
             d="m 1.96875,-3.109375 c 0,-0.125 -0.078125,-0.21875 -0.21875,-0.21875 -0.140625,0 -0.296875,0.140625 -0.296875,0.296875 0,0.140625 0.109375,0.21875 0.21875,0.21875 0.15625,0 0.296875,-0.140625 0.296875,-0.296875 z m 0.234375,2.390625 c 0,-0.0625 -0.078125,-0.0625 -0.09375,-0.0625 -0.09375,0 -0.09375,0.015625 -0.125,0.109375 -0.078125,0.265625 -0.3125,0.5625 -0.5625,0.5625 -0.109375,0 -0.140625,-0.078125 -0.140625,-0.1875 0,-0.109375 0.015625,-0.171875 0.0625,-0.265625 0.03125,-0.09375 0.078125,-0.1875 0.109375,-0.265625 0.015625,-0.046875 0.203125,-0.5 0.28125,-0.6875 0.03125,-0.09375 0.0625,-0.171875 0.0625,-0.25 0,-0.234375 -0.234375,-0.4375 -0.546875,-0.4375 -0.515625,0 -0.796875,0.640625 -0.796875,0.765625 0,0.078125 0.078125,0.078125 0.109375,0.078125 0.078125,0 0.078125,-0.03125 0.109375,-0.09375 0.109375,-0.359375 0.34375,-0.578125 0.5625,-0.578125 0.09375,0 0.15625,0.046875 0.15625,0.1875 0,0.015625 0,0.078125 -0.03125,0.171875 -0.03125,0.09375 -0.265625,0.625 -0.328125,0.796875 -0.046875,0.09375 -0.046875,0.09375 -0.109375,0.265625 -0.03125,0.078125 -0.0625,0.140625 -0.0625,0.21875 0,0.265625 0.25,0.453125 0.546875,0.453125 0.515625,0 0.796875,-0.65625 0.796875,-0.78125 z m 0,0"
             id="path1831" />
        </g>
      </g>
      <g
         clip-path="url(#clipPath450)"
         id="g1847"
         transform="matrix(0.352778,0,0,0.352778,-0.187413,0.0235039)">
        <g
           fill="#000000"
           fill-opacity="1"
           id="g1845">
          <g
             id="g1839"
             transform="translate(6.3730001,3.836)">
            <path
               d="M 2.703125,-1.109375 H 4.4375 c 0.0625,0 0.203125,0 0.203125,-0.140625 C 4.640625,-1.390625 4.5,-1.390625 4.4375,-1.390625 H 2.703125 V -3.125 c 0,-0.0625 0,-0.203125 -0.140625,-0.203125 -0.140625,0 -0.140625,0.140625 -0.140625,0.203125 v 1.734375 H 0.6875 c -0.0625,0 -0.203125,0 -0.203125,0.140625 0,0.140625 0.140625,0.140625 0.203125,0.140625 H 2.421875 V 0.625 c 0,0.078125 0,0.203125 0.140625,0.203125 0.140625,0 0.140625,-0.125 0.140625,-0.203125 z m 0,0"
               id="path1837" />
          </g>
          <g
             id="g1843"
             transform="translate(11.49278,3.836)">
            <path
               d="M 2.9375,-0.96875 H 2.71875 c 0,0.09375 -0.0625,0.40625 -0.140625,0.453125 -0.03125,0.03125 -0.453125,0.03125 -0.53125,0.03125 H 1.078125 C 1.40625,-0.71875 1.765625,-1 2.0625,-1.203125 c 0.453125,-0.3125 0.875,-0.59375 0.875,-1.125 0,-0.640625 -0.609375,-0.984375 -1.3125,-0.984375 -0.671875,0 -1.171875,0.375 -1.171875,0.875 0,0.25 0.21875,0.296875 0.296875,0.296875 0.125,0 0.28125,-0.09375 0.28125,-0.296875 0,-0.171875 -0.125,-0.28125 -0.28125,-0.28125 0.140625,-0.234375 0.4375,-0.375 0.765625,-0.375 0.484375,0 0.890625,0.28125 0.890625,0.765625 0,0.421875 -0.296875,0.75 -0.671875,1.0625 l -1.21875,1.03125 C 0.46875,-0.1875 0.453125,-0.1875 0.453125,-0.15625 V 0 h 2.3125 z m 0,0"
               id="path1841" />
          </g>
        </g>
      </g>
    </g>
    <g
       inkscape:label=""
       transform="translate(80.508276,106.85358)"
       id="g2173">
      <g
         fill="#000000"
         fill-opacity="1"
         id="g2153"
         transform="matrix(0.352778,0,0,0.352778,-0.187413,0.0235039)">
        <g
           id="g2151"
           transform="translate(0,2.5739999)">
          <path
             d="m 1.625,-2.5625 c 0,-0.015625 -0.015625,-0.078125 -0.109375,-0.078125 0,0 -0.359375,0.03125 -0.40625,0.03125 -0.171875,0.015625 -0.1875,0.015625 -0.34375,0.03125 -0.109375,0 -0.171875,0.015625 -0.171875,0.15625 0,0.09375 0.078125,0.09375 0.171875,0.09375 0.09375,0 0.171875,0 0.171875,0 0.109375,0.015625 0.109375,0.03125 0.109375,0.078125 0,0.046875 -0.046875,0.28125 -0.09375,0.40625 L 0.8125,-1.265625 0.578125,-0.28125 C 0.5625,-0.234375 0.53125,-0.109375 0.53125,-0.09375 0.53125,0 0.609375,0 0.640625,0 H 0.75 c 0.796875,-0.125 1.53125,-0.5 2.046875,-0.953125 0.796875,-0.6875 0.921875,-1.4375 0.921875,-1.484375 0,-0.140625 -0.109375,-0.203125 -0.203125,-0.203125 -0.078125,0 -0.234375,0.03125 -0.28125,0.234375 -0.359375,1.25 -1.375,1.875 -2.03125,2.09375 L 1.0625,-0.265625 Z m 0,0"
             id="path2149" />
        </g>
      </g>
      <g
         fill="#000000"
         fill-opacity="1"
         id="g2159"
         transform="matrix(0.352778,0,0,0.352778,-0.187413,0.0235039)">
        <g
           id="g2157"
           transform="translate(3.7149999,3.836)">
          <path
             d="m 1.96875,-3.109375 c 0,-0.125 -0.078125,-0.21875 -0.21875,-0.21875 -0.140625,0 -0.296875,0.140625 -0.296875,0.296875 0,0.140625 0.109375,0.21875 0.21875,0.21875 0.15625,0 0.296875,-0.140625 0.296875,-0.296875 z m 0.234375,2.390625 c 0,-0.0625 -0.078125,-0.0625 -0.09375,-0.0625 -0.09375,0 -0.09375,0.015625 -0.125,0.109375 -0.078125,0.265625 -0.3125,0.5625 -0.5625,0.5625 -0.109375,0 -0.140625,-0.078125 -0.140625,-0.1875 0,-0.109375 0.015625,-0.171875 0.0625,-0.265625 0.03125,-0.09375 0.078125,-0.1875 0.109375,-0.265625 0.015625,-0.046875 0.203125,-0.5 0.28125,-0.6875 0.03125,-0.09375 0.0625,-0.171875 0.0625,-0.25 0,-0.234375 -0.234375,-0.4375 -0.546875,-0.4375 -0.515625,0 -0.796875,0.640625 -0.796875,0.765625 0,0.078125 0.078125,0.078125 0.109375,0.078125 0.078125,0 0.078125,-0.03125 0.109375,-0.09375 0.109375,-0.359375 0.34375,-0.578125 0.5625,-0.578125 0.09375,0 0.15625,0.046875 0.15625,0.1875 0,0.015625 0,0.078125 -0.03125,0.171875 -0.03125,0.09375 -0.265625,0.625 -0.328125,0.796875 -0.046875,0.09375 -0.046875,0.09375 -0.109375,0.265625 -0.03125,0.078125 -0.0625,0.140625 -0.0625,0.21875 0,0.265625 0.25,0.453125 0.546875,0.453125 0.515625,0 0.796875,-0.65625 0.796875,-0.78125 z m 0,0"
             id="path2155" />
        </g>
      </g>
      <g
         fill="#000000"
         fill-opacity="1"
         id="g2165"
         transform="matrix(0.352778,0,0,0.352778,-0.187413,0.0235039)">
        <g
           id="g2163"
           transform="translate(6.3730001,3.836)">
          <path
             d="m 4.390625,-1.109375 c 0.078125,0 0.203125,0 0.203125,-0.140625 0,-0.140625 -0.125,-0.140625 -0.203125,-0.140625 h -3.375 c -0.078125,0 -0.21875,0 -0.21875,0.140625 0,0.140625 0.140625,0.140625 0.21875,0.140625 z m 0,0"
             id="path2161" />
        </g>
      </g>
      <g
         fill="#000000"
         fill-opacity="1"
         id="g2171"
         transform="matrix(0.352778,0,0,0.352778,-0.187413,0.0235039)">
        <g
           id="g2169"
           transform="translate(11.77,3.836)">
          <path
             d="M 2.9375,-0.96875 H 2.71875 c 0,0.09375 -0.0625,0.40625 -0.140625,0.453125 -0.03125,0.03125 -0.453125,0.03125 -0.53125,0.03125 H 1.078125 C 1.40625,-0.71875 1.765625,-1 2.0625,-1.203125 c 0.453125,-0.3125 0.875,-0.59375 0.875,-1.125 0,-0.640625 -0.609375,-0.984375 -1.3125,-0.984375 -0.671875,0 -1.171875,0.375 -1.171875,0.875 0,0.25 0.21875,0.296875 0.296875,0.296875 0.125,0 0.28125,-0.09375 0.28125,-0.296875 0,-0.171875 -0.125,-0.28125 -0.28125,-0.28125 0.140625,-0.234375 0.4375,-0.375 0.765625,-0.375 0.484375,0 0.890625,0.28125 0.890625,0.765625 0,0.421875 -0.296875,0.75 -0.671875,1.0625 l -1.21875,1.03125 C 0.46875,-0.1875 0.453125,-0.1875 0.453125,-0.15625 V 0 h 2.3125 z m 0,0"
             id="path2167" />
        </g>
      </g>
    </g>
    <g
       inkscape:label=""
       transform="translate(93.790576,107.10419)"
       id="g2521">
      <g
         fill="#000000"
         fill-opacity="1"
         id="g2501"
         transform="matrix(0.352778,0,0,0.352778,-0.187413,0.0235039)">
        <g
           id="g2499"
           transform="translate(0,2.5739999)">
          <path
             d="m 1.625,-2.5625 c 0,-0.015625 -0.015625,-0.078125 -0.109375,-0.078125 0,0 -0.359375,0.03125 -0.40625,0.03125 -0.171875,0.015625 -0.1875,0.015625 -0.34375,0.03125 -0.109375,0 -0.171875,0.015625 -0.171875,0.15625 0,0.09375 0.078125,0.09375 0.171875,0.09375 0.09375,0 0.171875,0 0.171875,0 0.109375,0.015625 0.109375,0.03125 0.109375,0.078125 0,0.046875 -0.046875,0.28125 -0.09375,0.40625 L 0.8125,-1.265625 0.578125,-0.28125 C 0.5625,-0.234375 0.53125,-0.109375 0.53125,-0.09375 0.53125,0 0.609375,0 0.640625,0 H 0.75 c 0.796875,-0.125 1.53125,-0.5 2.046875,-0.953125 0.796875,-0.6875 0.921875,-1.4375 0.921875,-1.484375 0,-0.140625 -0.109375,-0.203125 -0.203125,-0.203125 -0.078125,0 -0.234375,0.03125 -0.28125,0.234375 -0.359375,1.25 -1.375,1.875 -2.03125,2.09375 L 1.0625,-0.265625 Z m 0,0"
             id="path2497" />
        </g>
      </g>
      <g
         fill="#000000"
         fill-opacity="1"
         id="g2507"
         transform="matrix(0.352778,0,0,0.352778,-0.187413,0.0235039)">
        <g
           id="g2505"
           transform="translate(3.7149999,3.836)">
          <path
             d="m 1.96875,-3.109375 c 0,-0.125 -0.078125,-0.21875 -0.21875,-0.21875 -0.140625,0 -0.296875,0.140625 -0.296875,0.296875 0,0.140625 0.109375,0.21875 0.21875,0.21875 0.15625,0 0.296875,-0.140625 0.296875,-0.296875 z m 0.234375,2.390625 c 0,-0.0625 -0.078125,-0.0625 -0.09375,-0.0625 -0.09375,0 -0.09375,0.015625 -0.125,0.109375 -0.078125,0.265625 -0.3125,0.5625 -0.5625,0.5625 -0.109375,0 -0.140625,-0.078125 -0.140625,-0.1875 0,-0.109375 0.015625,-0.171875 0.0625,-0.265625 0.03125,-0.09375 0.078125,-0.1875 0.109375,-0.265625 0.015625,-0.046875 0.203125,-0.5 0.28125,-0.6875 0.03125,-0.09375 0.0625,-0.171875 0.0625,-0.25 0,-0.234375 -0.234375,-0.4375 -0.546875,-0.4375 -0.515625,0 -0.796875,0.640625 -0.796875,0.765625 0,0.078125 0.078125,0.078125 0.109375,0.078125 0.078125,0 0.078125,-0.03125 0.109375,-0.09375 0.109375,-0.359375 0.34375,-0.578125 0.5625,-0.578125 0.09375,0 0.15625,0.046875 0.15625,0.1875 0,0.015625 0,0.078125 -0.03125,0.171875 -0.03125,0.09375 -0.265625,0.625 -0.328125,0.796875 -0.046875,0.09375 -0.046875,0.09375 -0.109375,0.265625 -0.03125,0.078125 -0.0625,0.140625 -0.0625,0.21875 0,0.265625 0.25,0.453125 0.546875,0.453125 0.515625,0 0.796875,-0.65625 0.796875,-0.78125 z m 0,0"
             id="path2503" />
        </g>
      </g>
      <g
         fill="#000000"
         fill-opacity="1"
         id="g2513"
         transform="matrix(0.352778,0,0,0.352778,-0.187413,0.0235039)">
        <g
           id="g2511"
           transform="translate(6.3730001,3.836)">
          <path
             d="m 4.390625,-1.109375 c 0.078125,0 0.203125,0 0.203125,-0.140625 0,-0.140625 -0.125,-0.140625 -0.203125,-0.140625 h -3.375 c -0.078125,0 -0.21875,0 -0.21875,0.140625 0,0.140625 0.140625,0.140625 0.21875,0.140625 z m 0,0"
             id="path2509" />
        </g>
      </g>
      <g
         fill="#000000"
         fill-opacity="1"
         id="g2519"
         transform="matrix(0.352778,0,0,0.352778,-0.187413,0.0235039)">
        <g
           id="g2517"
           transform="translate(11.77,3.836)">
          <path
             d="M 1.984375,-3.171875 C 1.984375,-3.3125 1.96875,-3.3125 1.796875,-3.3125 1.453125,-3 0.890625,-3 0.796875,-3 H 0.71875 v 0.21875 h 0.078125 c 0.109375,0 0.4375,-0.015625 0.734375,-0.140625 v 2.5 c 0,0.140625 0,0.203125 -0.53125,0.203125 H 0.75 V 0 c 0.265625,-0.015625 0.71875,-0.015625 1,-0.015625 0.296875,0 0.734375,0 1.015625,0.015625 v -0.21875 h -0.25 c -0.53125,0 -0.53125,-0.0625 -0.53125,-0.203125 z m 0,0"
             id="path2515" />
        </g>
      </g>
    </g>
    <rect
       style="fill:#000000;stroke:#00ff00;stroke-width:0.2;fill-opacity:0;stroke-opacity:1;stroke-dasharray:1.20000002,0.2;stroke-dashoffset:0"
       id="rect2591"
       width="13.720867"
       height="28.757431"
       x="92.412231"
       y="105.56922" />
    <g
       inkscape:label=""
       transform="translate(91.127861,135.29808)"
       id="g5788">
      <g
         fill="#000000"
         fill-opacity="1"
         id="g5779"
         transform="matrix(0.352778,0,0,0.352778,-0.176389,0.0205052)">
        <g
           id="g5777"
           transform="translate(0,5.151)">
          <path
             d="m 5.265625,-3.421875 c 0.0625,-0.265625 0.1875,-0.40625 0.640625,-0.421875 0.03125,0 0.125,-0.015625 0.125,-0.140625 0,-0.0625 -0.03125,-0.109375 -0.09375,-0.109375 -0.140625,0 -0.484375,0.03125 -0.640625,0.03125 H 4.96875 c -0.109375,0 -0.234375,-0.03125 -0.328125,-0.03125 C 4.53125,-4.09375 4.5,-4.015625 4.5,-3.9375 c 0,0.09375 0.109375,0.09375 0.15625,0.09375 0.28125,0 0.390625,0.078125 0.390625,0.234375 0,0.03125 -0.015625,0.0625 -0.015625,0.09375 l -0.65625,2.625 -1.640625,-3.09375 C 2.6875,-4.078125 2.671875,-4.09375 2.53125,-4.09375 H 1.671875 c -0.109375,0 -0.203125,0 -0.203125,0.15625 0,0.09375 0.078125,0.09375 0.21875,0.09375 0.03125,0 0.234375,0 0.390625,0.03125 L 1.28125,-0.671875 C 1.21875,-0.4375 1.125,-0.25 0.640625,-0.234375 0.5625,-0.234375 0.5,-0.203125 0.5,-0.078125 0.515625,-0.0625 0.515625,0 0.609375,0 0.75,0 1.09375,-0.03125 1.25,-0.03125 l 0.328125,0.015625 C 1.6875,-0.015625 1.8125,0 1.90625,0 2.03125,0 2.046875,-0.125 2.046875,-0.15625 2.015625,-0.234375 1.96875,-0.234375 1.890625,-0.234375 1.609375,-0.25 1.5,-0.328125 1.5,-0.484375 c 0,-0.03125 0,-0.046875 0.015625,-0.125 L 2.28125,-3.65625 4.171875,-0.109375 C 4.203125,-0.015625 4.21875,0 4.296875,0 4.40625,0 4.421875,-0.03125 4.4375,-0.140625 Z m 0,0"
             id="path39" />
        </g>
      </g>
      <g
         fill="#000000"
         fill-opacity="1"
         id="g27"
         transform="matrix(0.352778,0,0,0.352778,-0.176389,0.0205052)">
        <g
           id="use25"
           transform="translate(6.4260001,2.145)">
          <path
             d="m 1.421875,-1.125 c 0.5,0 1.390625,-0.0625 1.390625,-0.625 0,-0.265625 -0.25,-0.453125 -0.71875,-0.453125 -0.671875,0 -1.53125,0.453125 -1.53125,1.28125 0,0.453125 0.296875,0.984375 1.046875,0.984375 0.09375,0 0.5,0 0.828125,-0.140625 0.328125,-0.125 0.53125,-0.359375 0.53125,-0.40625 0,-0.046875 -0.0625,-0.125 -0.109375,-0.125 -0.015625,0 -0.03125,0.015625 -0.109375,0.09375 -0.25,0.265625 -0.6875,0.40625 -1.140625,0.40625 -0.40625,0 -0.59375,-0.265625 -0.59375,-0.640625 0,-0.046875 0,-0.171875 0.046875,-0.375 z m -0.3125,-0.171875 c 0.21875,-0.6875 0.828125,-0.734375 0.984375,-0.734375 0.25,0 0.46875,0.09375 0.46875,0.28125 0,0.453125 -0.9375,0.453125 -1.171875,0.453125 z m 0,0"
             id="path43" />
        </g>
      </g>
      <g
         clip-path="url(#clipPath3846)"
         id="g33"
         transform="matrix(0.352778,0,0,0.352778,-0.176389,0.0205052)">
        <g
           fill="#000000"
           fill-opacity="1"
           id="g31">
          <g
             id="use29"
             transform="translate(5.7810001,7.1440001)">
            <path
               d="M 1.984375,-3.171875 C 1.984375,-3.3125 1.96875,-3.3125 1.796875,-3.3125 1.453125,-3 0.890625,-3 0.796875,-3 H 0.71875 v 0.21875 h 0.078125 c 0.109375,0 0.4375,-0.015625 0.734375,-0.140625 v 2.5 c 0,0.140625 0,0.203125 -0.53125,0.203125 H 0.75 V 0 c 0.265625,-0.015625 0.71875,-0.015625 1,-0.015625 0.296875,0 0.734375,0 1.015625,0.015625 v -0.21875 h -0.25 c -0.53125,0 -0.53125,-0.0625 -0.53125,-0.203125 z m 0,0"
               id="path47" />
          </g>
        </g>
      </g>
    </g>
    <g
       inkscape:label=""
       transform="translate(104.53547,135.42339)"
       id="g6932">
      <g
         fill="#000000"
         fill-opacity="1"
         id="g6916"
         transform="matrix(0.352778,0,0,0.352778,-0.176389,0.0205052)">
        <g
           id="g6914"
           transform="translate(0,5.151)">
          <path
             d="m 5.265625,-3.421875 c 0.0625,-0.265625 0.1875,-0.40625 0.640625,-0.421875 0.03125,0 0.125,-0.015625 0.125,-0.140625 0,-0.0625 -0.03125,-0.109375 -0.09375,-0.109375 -0.140625,0 -0.484375,0.03125 -0.640625,0.03125 H 4.96875 c -0.109375,0 -0.234375,-0.03125 -0.328125,-0.03125 C 4.53125,-4.09375 4.5,-4.015625 4.5,-3.9375 c 0,0.09375 0.109375,0.09375 0.15625,0.09375 0.28125,0 0.390625,0.078125 0.390625,0.234375 0,0.03125 -0.015625,0.0625 -0.015625,0.09375 l -0.65625,2.625 -1.640625,-3.09375 C 2.6875,-4.078125 2.671875,-4.09375 2.53125,-4.09375 H 1.671875 c -0.109375,0 -0.203125,0 -0.203125,0.15625 0,0.09375 0.078125,0.09375 0.21875,0.09375 0.03125,0 0.234375,0 0.390625,0.03125 L 1.28125,-0.671875 C 1.21875,-0.4375 1.125,-0.25 0.640625,-0.234375 0.5625,-0.234375 0.5,-0.203125 0.5,-0.078125 0.515625,-0.0625 0.515625,0 0.609375,0 0.75,0 1.09375,-0.03125 1.25,-0.03125 l 0.328125,0.015625 C 1.6875,-0.015625 1.8125,0 1.90625,0 2.03125,0 2.046875,-0.125 2.046875,-0.15625 2.015625,-0.234375 1.96875,-0.234375 1.890625,-0.234375 1.609375,-0.25 1.5,-0.328125 1.5,-0.484375 c 0,-0.03125 0,-0.046875 0.015625,-0.125 L 2.28125,-3.65625 4.171875,-0.109375 C 4.203125,-0.015625 4.21875,0 4.296875,0 4.40625,0 4.421875,-0.03125 4.4375,-0.140625 Z m 0,0"
             id="path6912" />
        </g>
      </g>
      <g
         fill="#000000"
         fill-opacity="1"
         id="g6922"
         transform="matrix(0.352778,0,0,0.352778,-0.176389,0.0205052)">
        <g
           id="g6920"
           transform="translate(6.4260001,2.145)">
          <path
             d="m 1.421875,-1.125 c 0.5,0 1.390625,-0.0625 1.390625,-0.625 0,-0.265625 -0.25,-0.453125 -0.71875,-0.453125 -0.671875,0 -1.53125,0.453125 -1.53125,1.28125 0,0.453125 0.296875,0.984375 1.046875,0.984375 0.09375,0 0.5,0 0.828125,-0.140625 0.328125,-0.125 0.53125,-0.359375 0.53125,-0.40625 0,-0.046875 -0.0625,-0.125 -0.109375,-0.125 -0.015625,0 -0.03125,0.015625 -0.109375,0.09375 -0.25,0.265625 -0.6875,0.40625 -1.140625,0.40625 -0.40625,0 -0.59375,-0.265625 -0.59375,-0.640625 0,-0.046875 0,-0.171875 0.046875,-0.375 z m -0.3125,-0.171875 c 0.21875,-0.6875 0.828125,-0.734375 0.984375,-0.734375 0.25,0 0.46875,0.09375 0.46875,0.28125 0,0.453125 -0.9375,0.453125 -1.171875,0.453125 z m 0,0"
             id="path6918" />
        </g>
      </g>
      <g
         clip-path="url(#clipPath2838)"
         id="g6930"
         transform="matrix(0.352778,0,0,0.352778,-0.176389,0.0205052)">
        <g
           fill="#000000"
           fill-opacity="1"
           id="g6928">
          <g
             id="g6926"
             transform="translate(5.7810001,7.1440001)">
            <path
               d="M 2.9375,-0.96875 H 2.71875 c 0,0.09375 -0.0625,0.40625 -0.140625,0.453125 -0.03125,0.03125 -0.453125,0.03125 -0.53125,0.03125 H 1.078125 C 1.40625,-0.71875 1.765625,-1 2.0625,-1.203125 c 0.453125,-0.3125 0.875,-0.59375 0.875,-1.125 0,-0.640625 -0.609375,-0.984375 -1.3125,-0.984375 -0.671875,0 -1.171875,0.375 -1.171875,0.875 0,0.25 0.21875,0.296875 0.296875,0.296875 0.125,0 0.28125,-0.09375 0.28125,-0.296875 0,-0.171875 -0.125,-0.28125 -0.28125,-0.28125 0.140625,-0.234375 0.4375,-0.375 0.765625,-0.375 0.484375,0 0.890625,0.28125 0.890625,0.765625 0,0.421875 -0.296875,0.75 -0.671875,1.0625 l -1.21875,1.03125 C 0.46875,-0.1875 0.453125,-0.1875 0.453125,-0.15625 V 0 h 2.3125 z m 0,0"
               id="path6924" />
          </g>
        </g>
      </g>
    </g>
  </g>
</svg>
