<?xml version="1.0" encoding="UTF-8" standalone="no"?>
<!-- Created with Inkscape (http://www.inkscape.org/) -->

<svg
   width="210mm"
   height="297mm"
   viewBox="0 0 210 297"
   version="1.1"
   id="svg5"
   inkscape:version="1.2.2 (732a01da63, 2022-12-09)"
   sodipodi:docname="平板波导散射.svg"
   xmlns:inkscape="http://www.inkscape.org/namespaces/inkscape"
   xmlns:sodipodi="http://sodipodi.sourceforge.net/DTD/sodipodi-0.dtd"
   xmlns="http://www.w3.org/2000/svg"
   xmlns:svg="http://www.w3.org/2000/svg">
  <sodipodi:namedview
     id="namedview7"
     pagecolor="#ffffff"
     bordercolor="#000000"
     borderopacity="0.25"
     inkscape:showpageshadow="2"
     inkscape:pageopacity="0.0"
     inkscape:pagecheckerboard="0"
     inkscape:deskcolor="#d1d1d1"
     inkscape:document-units="mm"
     showgrid="true"
     inkscape:zoom="5.6568543"
     inkscape:cx="418.25366"
     inkscape:cy="503.90197"
     inkscape:window-width="2880"
     inkscape:window-height="1541"
     inkscape:window-x="-11"
     inkscape:window-y="-11"
     inkscape:window-maximized="1"
     inkscape:current-layer="layer1">
    <inkscape:grid
       type="xygrid"
       id="grid686" />
  </sodipodi:namedview>
  <defs
     id="defs2">
    <marker
       style="overflow:visible"
       id="Arrow5"
       refX="0"
       refY="0"
       orient="auto-start-reverse"
       inkscape:stockid="Arrow5"
       markerWidth="5.8874259"
       markerHeight="6.6094756"
       viewBox="0 0 5.8874262 6.6094758"
       inkscape:isstock="true"
       inkscape:collect="always"
       preserveAspectRatio="xMidYMid">
      <path
         transform="scale(0.5)"
         style="fill:context-stroke;fill-rule:evenodd;stroke:context-stroke;stroke-width:1pt"
         d="m 6,0 c -3,1 -7,3 -9,5 0,0 0,-4 2,-5 -2,-1 -2,-5 -2,-5 2,2 6,4 9,5 z"
         id="path8893" />
    </marker>
    <clipPath
       id="clipPath1310">
      <path
         clip-rule="nonzero"
         d="M 0,0 H 5.523438 V 4.085938 H 0 Z m 0,0"
         id="path7601" />
    </clipPath>
    <clipPath
       id="clipPath733">
      <path
         clip-rule="nonzero"
         d="M 0,0 H 5 V 3.402344 H 0 Z m 0,0"
         id="path7025" />
    </clipPath>
    <clipPath
       id="clipPath9132">
      <path
         clip-rule="nonzero"
         d="M 0,0 H 5 V 3.402344 H 0 Z m 0,0"
         id="path5647" />
    </clipPath>
    <clipPath
       id="clipPath5358">
      <path
         clip-rule="nonzero"
         d="M 0,0 H 5 V 3.402344 H 0 Z m 0,0"
         id="path2456" />
    </clipPath>
    <clipPath
       id="clipPath7059">
      <path
         clip-rule="nonzero"
         d="M 0,0 H 5.703125 V 3.402344 H 0 Z m 0,0"
         id="path9465" />
    </clipPath>
    <marker
       style="overflow:visible"
       id="Arrow5-4"
       refX="0"
       refY="0"
       orient="auto-start-reverse"
       inkscape:stockid="Arrow5"
       markerWidth="5.8874259"
       markerHeight="6.6094756"
       viewBox="0 0 5.8874262 6.6094758"
       inkscape:isstock="true"
       inkscape:collect="always"
       preserveAspectRatio="xMidYMid">
      <path
         transform="scale(0.5)"
         style="fill:context-stroke;fill-rule:evenodd;stroke:context-stroke;stroke-width:1pt"
         d="m 6,0 c -3,1 -7,3 -9,5 0,0 0,-4 2,-5 -2,-1 -2,-5 -2,-5 2,2 6,4 9,5 z"
         id="path8893-2" />
    </marker>
    <clipPath
       id="clipPath3873">
      <path
         clip-rule="nonzero"
         d="M 0,0 H 3.945313 V 2.144531 H 0 Z m 0,0"
         id="path7504" />
    </clipPath>
    <clipPath
       id="clipPath1476">
      <path
         clip-rule="nonzero"
         d="M 0,0 H 3.816406 V 3.113281 H 0 Z m 0,0"
         id="path8648" />
    </clipPath>
  </defs>
  <g
     inkscape:label="图层 1"
     inkscape:groupmode="layer"
     id="layer1">
    <path
       style="fill:none;stroke:#000000;stroke-width:0.2"
       d="m 84.660948,128.25403 63.307432,0.0443"
       id="path801"
       inkscape:export-filename="path801.png"
       inkscape:export-xdpi="368.34"
       inkscape:export-ydpi="368.34" />
    <path
       style="fill:none;stroke:#000000;stroke-width:0.2"
       d="m 84.683098,143.11732 63.307432,0.0443"
       id="path801-6" />
    <path
       style="fill:none;stroke:#000000;stroke-width:0.1;stroke-dasharray:1.20000002,1.20000002;stroke-dashoffset:0"
       d="m 97.90722,121.65304 0.0886,25.4736"
       id="path933" />
    <path
       style="fill:none;stroke:#000000;stroke-width:0.1;stroke-dasharray:1.2, 1.2;stroke-dashoffset:0"
       d="m 129.71646,121.71959 0.0886,25.47359"
       id="path933-9" />
    <path
       style="fill:none;stroke:#000000;stroke-width:0.1;stroke-dasharray:none;stroke-dashoffset:0;marker-end:url(#Arrow5)"
       d="m 83.376192,133.29954 10.543855,0.0443"
       id="path2420" />
    <path
       style="fill:none;stroke:#000000;stroke-width:0.1;stroke-dasharray:none;stroke-dashoffset:0;marker-end:url(#Arrow5)"
       d="M 93.931551,138.40244 H 83.358965"
       id="path2649" />
    <path
       style="fill:none;stroke:#000000;stroke-width:0.1;stroke-dasharray:none;stroke-dashoffset:0;marker-end:url(#Arrow5)"
       d="m 132.25859,136.29349 10.58334,-0.0331"
       id="path2712" />
    <g
       inkscape:label=""
       transform="translate(95.894948,126.45471)"
       id="g4693">
      <g
         clip-path="url(#clipPath733)"
         id="g17"
         transform="matrix(0.352778,0,0,0.352778,-0.181901,0.0559153)">
        <g
           fill="#000000"
           fill-opacity="1"
           id="g15">
          <g
             id="use13"
             transform="translate(0,3.404)">
            <path
               d="m 3.625,-3.4375 c -0.015625,-0.09375 -0.046875,-0.125 -0.15625,-0.125 -0.109375,0 -0.140625,0.03125 -0.1875,0.109375 L 1.328125,-0.625 c -0.21875,0.3125 -0.390625,0.390625 -0.71875,0.40625 -0.09375,0 -0.09375,0.125 -0.09375,0.140625 C 0.515625,-0.015625 0.578125,0 0.59375,0 0.671875,0 0.75,-0.015625 0.828125,-0.015625 c 0.078125,0 0.15625,0 0.25,0 0.09375,0 0.1875,0 0.265625,0 C 1.4375,-0.015625 1.546875,0 1.640625,0 1.671875,0 1.75,0 1.75,-0.140625 1.75,-0.21875 1.6875,-0.21875 1.65625,-0.21875 c -0.03125,0 -0.234375,-0.015625 -0.234375,-0.140625 0,-0.046875 0.0625,-0.140625 0.09375,-0.1875 l 0.375,-0.53125 c 0.015625,-0.03125 0.015625,-0.03125 0.125,-0.03125 h 1.5 C 3.53125,-1.0625 3.53125,-1.03125 3.546875,-0.96875 3.5625,-0.875 3.65625,-0.390625 3.65625,-0.328125 c 0,0.109375 -0.3125,0.109375 -0.328125,0.109375 -0.078125,0 -0.15625,0 -0.15625,0.140625 C 3.171875,-0.03125 3.203125,0 3.265625,0 c 0.09375,0 0.21875,-0.015625 0.328125,-0.015625 0.125,0 0.234375,0 0.359375,0 0.09375,0 0.203125,0 0.3125,0 0.09375,0 0.21875,0.015625 0.3125,0.015625 0.09375,0 0.125,-0.0625 0.125,-0.140625 0,-0.078125 -0.078125,-0.078125 -0.15625,-0.078125 -0.328125,0 -0.328125,-0.046875 -0.34375,-0.15625 z m -0.453125,0.484375 0.3125,1.609375 H 2.0625 Z m 0,0"
               id="path23" />
          </g>
        </g>
      </g>
    </g>
    <g
       inkscape:label=""
       transform="translate(96.225677,143.65263)"
       id="g5503">
      <g
         clip-path="url(#clipPath9132)"
         id="g5501"
         transform="matrix(0.352778,0,0,0.352778,-0.214974,7.93736e-4)">
        <g
           fill="#000000"
           fill-opacity="1"
           id="g5499">
          <g
             id="g5497"
             transform="translate(0,3.404)">
            <path
               d="m 1.234375,-0.40625 c -0.03125,0.140625 -0.046875,0.1875 -0.421875,0.1875 -0.125,0 -0.203125,0 -0.203125,0.140625 C 0.609375,0 0.6875,0 0.765625,0 H 2.9375 c 0.890625,0 1.625,-0.5625 1.625,-1.0625 0,-0.296875 -0.296875,-0.640625 -0.96875,-0.71875 0.5,-0.0625 1.203125,-0.390625 1.203125,-0.890625 0,-0.421875 -0.5,-0.734375 -1.171875,-0.734375 H 1.578125 c -0.09375,0 -0.171875,0 -0.171875,0.140625 0,0.078125 0.0625,0.078125 0.171875,0.078125 0.0625,0 0.21875,0 0.328125,0.03125 0,0.0625 0,0.078125 -0.015625,0.125 z M 2.078125,-1.859375 2.375,-3.015625 C 2.40625,-3.171875 2.40625,-3.1875 2.609375,-3.1875 H 3.53125 c 0.484375,0 0.71875,0.265625 0.71875,0.53125 0,0.390625 -0.53125,0.796875 -1.234375,0.796875 z M 1.84375,-0.21875 c -0.046875,0 -0.109375,0 -0.15625,-0.015625 0,-0.046875 0,-0.046875 0,-0.09375 L 2.03125,-1.6875 H 3.25 c 0.515625,0 0.765625,0.296875 0.765625,0.609375 0,0.484375 -0.59375,0.859375 -1.21875,0.859375 z m 0,0"
               id="path5495" />
          </g>
        </g>
      </g>
    </g>
    <g
       inkscape:label=""
       transform="translate(130.15849,126.55393)"
       id="g6327">
      <g
         clip-path="url(#clipPath5358)"
         id="g6325"
         transform="matrix(0.352778,0,0,0.352778,-0.20395,0.0393788)">
        <g
           fill="#000000"
           fill-opacity="1"
           id="g6323">
          <g
             id="g6321"
             transform="translate(0,3.404)">
            <path
               d="m 4.859375,-3.4375 c 0,-0.015625 0,-0.078125 -0.078125,-0.078125 -0.03125,0 -0.03125,0 -0.09375,0.0625 l -0.34375,0.34375 C 4.328125,-3.09375 4.296875,-3.0625 4.28125,-3.0625 c 0,0 -0.015625,-0.015625 -0.015625,-0.015625 -0.109375,-0.109375 -0.40625,-0.4375 -1.0625,-0.4375 -1.375,0 -2.625,1.078125 -2.625,2.171875 0,0.8125 0.6875,1.453125 1.765625,1.453125 0.5,0 0.9375,-0.171875 1.25,-0.359375 0.640625,-0.421875 0.703125,-0.953125 0.703125,-0.953125 0,-0.078125 -0.0625,-0.078125 -0.09375,-0.078125 -0.0625,0 -0.09375,0.015625 -0.109375,0.0625 -0.234375,0.796875 -1.0625,1.109375 -1.625,1.109375 -0.59375,0 -1.34375,-0.25 -1.34375,-1.125 0,-0.5625 0.296875,-1.140625 0.609375,-1.4375 0.578125,-0.546875 1.234375,-0.625 1.546875,-0.625 0.640625,0 1.046875,0.421875 1.046875,1 0,0.109375 -0.015625,0.125 -0.015625,0.15625 0,0.078125 0.0625,0.078125 0.109375,0.078125 0.09375,0 0.09375,-0.015625 0.125,-0.109375 z m 0,0"
               id="path6319" />
          </g>
        </g>
      </g>
    </g>
    <g
       inkscape:label=""
       transform="translate(130.15849,143.78492)"
       id="g7165">
      <g
         clip-path="url(#clipPath7059)"
         id="g7163"
         transform="matrix(0.352778,0,0,0.352778,-0.209462,7.93736e-4)">
        <g
           fill="#000000"
           fill-opacity="1"
           id="g7161">
          <g
             id="g7159"
             transform="translate(0,3.404)">
            <path
               d="m 1.21875,-0.40625 c -0.03125,0.140625 -0.03125,0.1875 -0.421875,0.1875 -0.125,0 -0.203125,0 -0.203125,0.140625 C 0.59375,0 0.671875,0 0.75,0 H 2.765625 C 3.9375,0 5.125,-0.953125 5.125,-2.046875 5.125,-2.875 4.46875,-3.40625 3.609375,-3.40625 H 1.5625 c -0.09375,0 -0.171875,0 -0.171875,0.140625 0,0.078125 0.0625,0.078125 0.1875,0.078125 0.046875,0 0.21875,0 0.3125,0.03125 0,0.0625 0,0.078125 -0.015625,0.125 z M 2.375,-3.015625 C 2.421875,-3.171875 2.421875,-3.1875 2.625,-3.1875 h 0.796875 c 0.34375,0 0.671875,0.09375 0.890625,0.28125 0.171875,0.171875 0.28125,0.375 0.28125,0.71875 0,0.3125 -0.109375,0.953125 -0.484375,1.375 -0.375,0.40625 -0.921875,0.59375 -1.4375,0.59375 H 1.84375 c -0.03125,0 -0.109375,0 -0.15625,-0.015625 0,-0.046875 0,-0.0625 0.015625,-0.09375 z m 0,0"
               id="path7157" />
          </g>
        </g>
      </g>
    </g>
    <path
       style="fill:#b2b1b1;stroke:#000000;stroke-width:0.126467;fill-opacity:1"
       d="m 113.03416,138.89399 c 0,0 6.4144,1.17059 4.76746,-3.02741 -1.64694,-4.19801 -7.53794,-2.09676 -6.63111,0.72657 0.75846,2.36139 1.86365,2.30084 1.86365,2.30084 z"
       id="path910"
       sodipodi:nodetypes="cssc" />
    <path
       style="fill:#b2b1b1;fill-opacity:1;stroke:#000000;stroke-width:0.1;marker-end:url(#Arrow5)"
       d="m 79.325389,149.50612 3.985287,-0.0165"
       id="path7655" />
    <path
       style="fill:#b2b1b1;fill-opacity:1;stroke:#000000;stroke-width:0.1;marker-end:url(#Arrow5-4)"
       d="m 79.379088,149.57149 -0.0165,-3.98528"
       id="path7655-6" />
    <g
       inkscape:label=""
       transform="translate(83.095746,150.06844)"
       id="g12021">
      <g
         clip-path="url(#clipPath3873)"
         id="g12019"
         transform="matrix(0.352778,0,0,0.352778,-0.165365,0.0205052)">
        <g
           fill="#000000"
           fill-opacity="1"
           id="g12017">
          <g
             id="g12015"
             transform="translate(0,2.145)">
            <path
               d="m 3.09375,-1.953125 c -0.234375,0.0625 -0.234375,0.28125 -0.234375,0.296875 0,0.078125 0.0625,0.203125 0.234375,0.203125 0.140625,0 0.3125,-0.125 0.3125,-0.34375 0,-0.296875 -0.328125,-0.40625 -0.59375,-0.40625 -0.328125,0 -0.546875,0.203125 -0.640625,0.34375 -0.15625,-0.28125 -0.484375,-0.34375 -0.65625,-0.34375 -0.625,0 -0.984375,0.59375 -0.984375,0.765625 0,0.078125 0.078125,0.078125 0.109375,0.078125 0.046875,0 0.078125,0 0.109375,-0.0625 0.140625,-0.484375 0.546875,-0.609375 0.734375,-0.609375 0.171875,0 0.359375,0.0625 0.359375,0.328125 0,0.125 -0.09375,0.46875 -0.265625,1.140625 -0.0625,0.28125 -0.296875,0.453125 -0.515625,0.453125 -0.03125,0 -0.171875,0 -0.296875,-0.078125 0.21875,-0.09375 0.21875,-0.28125 0.21875,-0.296875 0,-0.140625 -0.109375,-0.203125 -0.21875,-0.203125 -0.125,0 -0.296875,0.09375 -0.296875,0.328125 0,0.3125 0.328125,0.421875 0.59375,0.421875 0.265625,0 0.5,-0.171875 0.609375,-0.34375 C 1.875,0.015625 2.1875,0.0625 2.34375,0.0625 c 0.625,0 0.984375,-0.59375 0.984375,-0.78125 0,-0.0625 -0.078125,-0.0625 -0.109375,-0.0625 -0.078125,0 -0.09375,0.03125 -0.109375,0.0625 C 2.96875,-0.265625 2.59375,-0.109375 2.375,-0.109375 c -0.15625,0 -0.359375,-0.0625 -0.359375,-0.34375 0,-0.0625 0,-0.09375 0.03125,-0.265625 0.09375,-0.34375 0.21875,-0.890625 0.265625,-0.984375 0.0625,-0.125 0.234375,-0.328125 0.484375,-0.328125 0.015625,0 0.1875,0 0.296875,0.078125 z m 0,0"
               id="path12013" />
          </g>
        </g>
      </g>
    </g>
    <g
       inkscape:label=""
       transform="translate(79.755381,145.14057)"
       id="g12919">
      <g
         clip-path="url(#clipPath1476)"
         id="g12917"
         transform="matrix(0.352778,0,0,0.352778,-0.159852,0.020858)">
        <g
           fill="#000000"
           fill-opacity="1"
           id="g12915">
          <g
             id="g12913"
             transform="translate(0,2.1440001)">
            <path
               d="M 3.296875,-1.859375 C 3.3125,-1.9375 3.3125,-1.96875 3.3125,-1.96875 c 0,-0.109375 -0.078125,-0.171875 -0.171875,-0.171875 -0.203125,0 -0.25,0.171875 -0.28125,0.296875 L 2.75,-1.421875 l -0.140625,0.625 c -0.03125,0.0625 -0.046875,0.15625 -0.0625,0.1875 0,0.03125 -0.265625,0.5 -0.6875,0.5 -0.234375,0 -0.40625,-0.109375 -0.40625,-0.4375 0,-0.265625 0.140625,-0.640625 0.28125,-1 0.03125,-0.046875 0.0625,-0.140625 0.0625,-0.21875 0,-0.25 -0.234375,-0.4375 -0.546875,-0.4375 -0.515625,0 -0.796875,0.640625 -0.796875,0.765625 0,0.078125 0.078125,0.078125 0.109375,0.078125 0.078125,0 0.078125,-0.03125 0.109375,-0.09375 0.109375,-0.34375 0.34375,-0.578125 0.5625,-0.578125 0.09375,0 0.15625,0.046875 0.15625,0.1875 0,0.09375 -0.03125,0.171875 -0.0625,0.265625 -0.25,0.59375 -0.296875,0.765625 -0.296875,0.96875 0,0.546875 0.46875,0.671875 0.796875,0.671875 0.28125,0 0.5,-0.140625 0.625,-0.25 -0.078125,0.28125 -0.125,0.5 -0.359375,0.734375 -0.125,0.109375 -0.359375,0.3125 -0.65625,0.3125 -0.09375,0 -0.28125,-0.015625 -0.390625,-0.125 0.21875,-0.0625 0.25,-0.25 0.25,-0.296875 0,-0.140625 -0.125,-0.203125 -0.21875,-0.203125 -0.15625,0 -0.328125,0.109375 -0.328125,0.34375 0,0.25 0.265625,0.4375 0.6875,0.4375 C 2,1.015625 2.671875,0.640625 2.828125,0 Z m 0,0"
               id="path12911" />
          </g>
        </g>
      </g>
    </g>
  </g>
</svg>
